<svg width="40" height="40" viewBox="0 0 40 40" fill="none" xmlns="http://www.w3.org/2000/svg">
<path d="M36.6667 31.6667C36.6667 32.5507 36.3155 33.3986 35.6904 34.0237C35.0653 34.6488 34.2174 35 33.3334 35H6.66671C5.78265 35 4.93481 34.6488 4.30968 34.0237C3.68456 33.3986 3.33337 32.5507 3.33337 31.6667V8.33333C3.33337 7.44928 3.68456 6.60143 4.30968 5.97631C4.93481 5.35119 5.78265 5 6.66671 5H15L18.3334 10H33.3334C34.2174 10 35.0653 10.3512 35.6904 10.9763C36.3155 11.6014 36.6667 12.4493 36.6667 13.3333V31.6667Z" stroke="#00BABA" stroke-width="3" stroke-linecap="round" stroke-linejoin="round"/>
<mask id="path-2-outside-1_17744_21857" maskUnits="userSpaceOnUse" x="8" y="16" width="23" height="12" fill="black">
<rect fill="white" x="8" y="16" width="23" height="12"/>
<path d="M15.4458 23.2349L14.4062 20.3133C14.3072 20.0823 14.2032 19.8263 14.0943 19.5452C13.9953 19.254 13.9062 18.9629 13.8269 18.6717C13.7477 18.9729 13.6586 19.2641 13.5596 19.5452C13.4606 19.8263 13.3616 20.0823 13.2626 20.3133L12.2229 23.2349H15.4458ZM18.6687 27H17.2429C17.0746 27 16.9261 26.9197 16.7974 26.759C16.6687 26.5984 16.5795 26.4378 16.53 26.2771L15.8914 24.5H11.7922L11.1684 26.2771C11.0991 26.4277 11.0001 26.5884 10.8714 26.759C10.7427 26.9197 10.5941 27 10.4258 27H9L12.9061 17H14.7626L18.6687 27Z"/>
<path d="M22.9109 22.0301C23.5941 22.0301 24.0991 21.8645 24.4258 21.5331C24.7625 21.1918 24.9308 20.7349 24.9308 20.1627C24.9308 19.5904 24.7625 19.1536 24.4258 18.8524C24.0991 18.5412 23.5941 18.3855 22.9109 18.3855H21.5148V22.0301H22.9109ZM22.9109 17C23.5743 17 24.1486 17.0753 24.6337 17.2259C25.1189 17.3765 25.515 17.5924 25.8219 17.8735C26.1388 18.1546 26.3714 18.491 26.52 18.8825C26.6784 19.2641 26.7576 19.6908 26.7576 20.1627C26.7576 20.6446 26.6784 21.0863 26.52 21.488C26.3615 21.8896 26.1189 22.241 25.7922 22.5422C25.4754 22.8333 25.0743 23.0592 24.5892 23.2199C24.1139 23.3805 23.5545 23.4608 22.9109 23.4608H21.5148V27H19.688V17H22.9109Z"/>
<path d="M30 27H28.1583V17H30V27Z"/>
</mask>
<path d="M15.4458 23.2349L14.4062 20.3133C14.3072 20.0823 14.2032 19.8263 14.0943 19.5452C13.9953 19.254 13.9062 18.9629 13.8269 18.6717C13.7477 18.9729 13.6586 19.2641 13.5596 19.5452C13.4606 19.8263 13.3616 20.0823 13.2626 20.3133L12.2229 23.2349H15.4458ZM18.6687 27H17.2429C17.0746 27 16.9261 26.9197 16.7974 26.759C16.6687 26.5984 16.5795 26.4378 16.53 26.2771L15.8914 24.5H11.7922L11.1684 26.2771C11.0991 26.4277 11.0001 26.5884 10.8714 26.759C10.7427 26.9197 10.5941 27 10.4258 27H9L12.9061 17H14.7626L18.6687 27Z" fill="#344456"/>
<path d="M22.9109 22.0301C23.5941 22.0301 24.0991 21.8645 24.4258 21.5331C24.7625 21.1918 24.9308 20.7349 24.9308 20.1627C24.9308 19.5904 24.7625 19.1536 24.4258 18.8524C24.0991 18.5412 23.5941 18.3855 22.9109 18.3855H21.5148V22.0301H22.9109ZM22.9109 17C23.5743 17 24.1486 17.0753 24.6337 17.2259C25.1189 17.3765 25.515 17.5924 25.8219 17.8735C26.1388 18.1546 26.3714 18.491 26.52 18.8825C26.6784 19.2641 26.7576 19.6908 26.7576 20.1627C26.7576 20.6446 26.6784 21.0863 26.52 21.488C26.3615 21.8896 26.1189 22.241 25.7922 22.5422C25.4754 22.8333 25.0743 23.0592 24.5892 23.2199C24.1139 23.3805 23.5545 23.4608 22.9109 23.4608H21.5148V27H19.688V17H22.9109Z" fill="#344456"/>
<path d="M30 27H28.1583V17H30V27Z" fill="#344456"/>
<path d="M15.4458 23.2349V23.5349H15.871L15.7285 23.1344L15.4458 23.2349ZM14.4062 20.3133L14.6888 20.2127L14.6856 20.2037L14.6819 20.195L14.4062 20.3133ZM14.0943 19.5452L13.81 19.6419L13.8145 19.6536L14.0943 19.5452ZM13.8269 18.6717L14.1164 18.5929L13.822 17.5108L13.5368 18.5954L13.8269 18.6717ZM13.5596 19.5452L13.2766 19.4455V19.4455L13.5596 19.5452ZM13.2626 20.3133L12.9868 20.195L12.9831 20.2037L12.9799 20.2127L13.2626 20.3133ZM12.2229 23.2349L11.9403 23.1344L11.7977 23.5349H12.2229V23.2349ZM18.6687 27V27.3H19.108L18.9482 26.8908L18.6687 27ZM16.53 26.2771L16.817 26.1887L16.8124 26.1756L16.53 26.2771ZM15.8914 24.5L16.1737 24.3985L16.1024 24.2H15.8914V24.5ZM11.7922 24.5V24.2H11.5796L11.5091 24.4006L11.7922 24.5ZM11.1684 26.2771L11.4409 26.4025L11.4468 26.3897L11.4515 26.3765L11.1684 26.2771ZM10.8714 26.759L11.1056 26.9467L11.1109 26.9397L10.8714 26.759ZM9 27L8.72056 26.8908L8.56074 27.3H9V27ZM12.9061 17V16.7H12.7012L12.6267 16.8908L12.9061 17ZM14.7626 17L15.0421 16.8908L14.9675 16.7H14.7626V17ZM24.4258 21.5331L24.6394 21.7438L24.4258 21.5331ZM24.4258 18.8524L24.2188 19.0697L24.2258 19.076L24.4258 18.8524ZM21.5148 18.3855V18.0855H21.2148V18.3855H21.5148ZM21.5148 22.0301H21.2148V22.3301H21.5148V22.0301ZM24.6337 17.2259L24.7227 16.9394L24.7227 16.9394L24.6337 17.2259ZM25.8219 17.8735L25.6193 18.0948L25.6228 18.0979L25.8219 17.8735ZM26.52 18.8825L26.2393 18.989L26.2429 18.9976L26.52 18.8825ZM26.52 21.488L26.799 21.598V21.598L26.52 21.488ZM25.7922 22.5422L25.9952 22.7631L25.9955 22.7627L25.7922 22.5422ZM24.5892 23.2199L24.4949 22.9351L24.4931 22.9357L24.5892 23.2199ZM21.5148 23.4608V23.1608H21.2148V23.4608H21.5148ZM21.5148 27V27.3H21.8148V27H21.5148ZM19.688 27H19.388V27.3H19.688V27ZM19.688 17V16.7H19.388V17H19.688ZM30 27V27.3H30.3V27H30ZM28.1583 27H27.8583V27.3H28.1583V27ZM28.1583 17V16.7H27.8583V17H28.1583ZM30 17H30.3V16.7H30V17ZM15.7285 23.1344L14.6888 20.2127L14.1235 20.4138L15.1632 23.3355L15.7285 23.1344ZM14.6819 20.195C14.5845 19.9679 14.4819 19.7152 14.374 19.4368L13.8145 19.6536C13.9245 19.9374 14.0298 20.1967 14.1305 20.4315L14.6819 20.195ZM14.3783 19.4486C14.2813 19.1632 14.194 18.878 14.1164 18.5929L13.5375 18.7504C13.6183 19.0477 13.7093 19.3448 13.8103 19.6418L14.3783 19.4486ZM13.5368 18.5954C13.4596 18.8891 13.3728 19.1724 13.2766 19.4455L13.8426 19.6448C13.9444 19.3557 14.0359 19.0567 14.1171 18.748L13.5368 18.5954ZM13.2766 19.4455C13.1794 19.7215 13.0828 19.9712 12.9868 20.195L13.5383 20.4315C13.6403 20.1935 13.7417 19.9311 13.8426 19.6448L13.2766 19.4455ZM12.9799 20.2127L11.9403 23.1344L12.5056 23.3355L13.5452 20.4138L12.9799 20.2127ZM12.2229 23.5349H15.4458V22.9349H12.2229V23.5349ZM18.6687 26.7H17.2429V27.3H18.6687V26.7ZM17.2429 26.7C17.1859 26.7 17.1173 26.6785 17.0315 26.5714L16.5633 26.9466C16.7349 27.1608 16.9633 27.3 17.2429 27.3V26.7ZM17.0315 26.5714C16.9212 26.4339 16.8529 26.3062 16.8167 26.1888L16.2433 26.3655C16.3062 26.5693 16.4161 26.7629 16.5633 26.9466L17.0315 26.5714ZM16.8124 26.1756L16.1737 24.3985L15.6091 24.6015L16.2477 26.3786L16.8124 26.1756ZM15.8914 24.2H11.7922V24.8H15.8914V24.2ZM11.5091 24.4006L10.8853 26.1777L11.4515 26.3765L12.0753 24.5994L11.5091 24.4006ZM10.8959 26.1517C10.8377 26.2781 10.7511 26.4202 10.6318 26.5784L11.1109 26.9397C11.249 26.7565 11.3605 26.5773 11.4409 26.4025L10.8959 26.1517ZM10.6373 26.5714C10.5515 26.6785 10.4828 26.7 10.4258 26.7V27.3C10.7055 27.3 10.9338 27.1608 11.1055 26.9466L10.6373 26.5714ZM10.4258 26.7H9V27.3H10.4258V26.7ZM9.27944 27.1092L13.1856 17.1092L12.6267 16.8908L8.72056 26.8908L9.27944 27.1092ZM12.9061 17.3H14.7626V16.7H12.9061V17.3ZM14.4832 17.1092L18.3893 27.1092L18.9482 26.8908L15.0421 16.8908L14.4832 17.1092ZM22.9109 22.3301C23.6368 22.3301 24.2345 22.1544 24.6394 21.7438L24.2122 21.3225C23.9636 21.5745 23.5513 21.7301 22.9109 21.7301V22.3301ZM24.6394 21.7438C25.0419 21.3356 25.2308 20.7974 25.2308 20.1627H24.6308C24.6308 20.6724 24.483 21.0479 24.2122 21.3225L24.6394 21.7438ZM25.2308 20.1627C25.2308 19.5294 25.0423 19.0014 24.6258 18.6288L24.2258 19.076C24.4827 19.3058 24.6308 19.6513 24.6308 20.1627H25.2308ZM24.6327 18.6352C24.2274 18.2491 23.6324 18.0855 22.9109 18.0855V18.6855C23.5557 18.6855 23.9708 18.8333 24.2189 19.0696L24.6327 18.6352ZM22.9109 18.0855H21.5148V18.6855H22.9109V18.0855ZM21.2148 18.3855V22.0301H21.8148V18.3855H21.2148ZM21.5148 22.3301H22.9109V21.7301H21.5148V22.3301ZM22.9109 17.3C23.5528 17.3 24.0957 17.373 24.5448 17.5124L24.7227 16.9394C24.2014 16.7776 23.5958 16.7 22.9109 16.7V17.3ZM24.5448 17.5124C24.9969 17.6527 25.3513 17.8493 25.6193 18.0947L26.0245 17.6523C25.6786 17.3354 25.241 17.1003 24.7227 16.9394L24.5448 17.5124ZM25.6228 18.0979C25.9038 18.3472 26.1083 18.6432 26.2395 18.9889L26.8005 18.7761C26.6345 18.3387 26.3737 17.962 26.021 17.6491L25.6228 18.0979ZM26.2429 18.9976C26.3842 19.3378 26.4576 19.7247 26.4576 20.1627H27.0576C27.0576 19.6569 26.9726 19.1903 26.797 18.7675L26.2429 18.9976ZM26.4576 20.1627C26.4576 20.6113 26.384 21.0152 26.2409 21.3779L26.799 21.598C26.9728 21.1575 27.0576 20.6779 27.0576 20.1627H26.4576ZM26.2409 21.3779C26.0996 21.7361 25.8834 22.0501 25.5889 22.3216L25.9955 22.7627C26.3545 22.4318 26.6235 22.043 26.799 21.598L26.2409 21.3779ZM25.5892 22.3213C25.309 22.5788 24.9472 22.7853 24.4949 22.9351L24.6835 23.5047C25.2015 23.3331 25.6417 23.0879 25.9952 22.7631L25.5892 22.3213ZM24.4931 22.9357C24.0561 23.0834 23.5306 23.1608 22.9109 23.1608V23.7608C23.5784 23.7608 24.1717 23.6777 24.6852 23.5041L24.4931 22.9357ZM22.9109 23.1608H21.5148V23.7608H22.9109V23.1608ZM21.2148 23.4608V27H21.8148V23.4608H21.2148ZM21.5148 26.7H19.688V27.3H21.5148V26.7ZM19.988 27V17H19.388V27H19.988ZM19.688 17.3H22.9109V16.7H19.688V17.3ZM30 26.7H28.1583V27.3H30V26.7ZM28.4583 27V17H27.8583V27H28.4583ZM28.1583 17.3H30V16.7H28.1583V17.3ZM29.7 17V27H30.3V17H29.7Z" fill="#344456" mask="url(#path-2-outside-1_17744_21857)"/>
</svg>
