<svg width="40" height="40" viewBox="0 0 40 40" fill="none" xmlns="http://www.w3.org/2000/svg">
<path d="M18 6.66797H6.33333C5.44928 6.66797 4.60143 7.01916 3.97631 7.64428C3.35119 8.2694 3 9.11725 3 10.0013V33.3346C3 34.2187 3.35119 35.0665 3.97631 35.6917C4.60143 36.3168 5.44928 36.668 6.33333 36.668H29.6667C30.5507 36.668 31.3986 36.3168 32.0237 35.6917C32.6488 35.0665 33 34.2187 33 33.3346V21.668" stroke="#00BABA" stroke-width="3" stroke-linecap="round" stroke-linejoin="round"/>
<path d="M30.5 4.16639C31.163 3.50335 32.0623 3.13086 33 3.13086C33.9377 3.13086 34.837 3.50335 35.5 4.16639C36.163 4.82943 36.5355 5.72871 36.5355 6.66639C36.5355 7.60407 36.163 8.50335 35.5 9.16639L19.6667 24.9997L13 26.6664L14.6667 19.9997L30.5 4.16639Z" stroke="#344456" stroke-width="3" stroke-linecap="round" stroke-linejoin="round"/>
</svg>
