<svg width="186" height="40" viewBox="0 0 186 40" fill="none" xmlns="http://www.w3.org/2000/svg">
    <g clip-path="url(#clip0_8727_15241)">
        <path d="M146.351 20.6936C146.387 20.5037 146.323 20.3161 146.419 20.1123C146.474 19.9965 146.335 19.7764 146.348 19.5865C146.362 19.3966 146.348 19.2252 146.348 19.0446C146.348 18.8639 146.552 18.813 146.483 18.6277V18.3521C146.483 17.2242 146.74 16.1496 147.007 15.0657C147.116 14.5157 147.262 13.974 147.445 13.4444C147.877 12.2687 148.398 11.1281 149.003 10.033C149.566 9.05791 150.28 8.19403 150.854 7.2352C150.922 7.14545 150.999 7.06317 151.083 6.9897C151.5 6.54966 151.882 6.06329 152.337 5.6742C152.992 5.10678 153.509 4.36797 154.319 3.99045C155.434 2.95519 156.813 2.35766 158.134 1.67443C158.839 1.31082 159.626 1.11164 160.372 0.829085C161.026 0.581271 161.745 0.555795 162.39 0.280189C162.88 0.354301 163.34 0.0370064 163.828 0.148175C164.095 0.210708 164.258 -0.0579504 164.514 -0.00468189C164.762 0.0185311 165.012 0.0185311 165.26 -0.00468189C165.283 0.22692 165.457 0.120383 165.569 0.129647C166.027 0.164387 166.054 0.210708 166.086 0.690124C166.107 0.988891 165.899 1.22049 165.933 1.52158C165.95 1.81623 165.95 2.11165 165.933 2.4063C165.933 2.67727 165.933 2.95056 165.933 3.22385C165.933 3.38366 166.008 3.58283 165.716 3.60599C165.61 3.60599 165.716 3.70558 165.761 3.71253C165.853 3.72643 165.944 3.71253 165.935 3.85381C165.64 3.85381 165.345 3.8376 165.05 3.85381C164.046 3.93792 163.05 4.10759 162.075 4.36102C160.911 4.65469 159.786 5.08857 158.724 5.65336C157.971 6.05955 157.249 6.52414 156.566 7.04297C155.779 7.62624 155.049 8.28554 154.388 9.01159C153.548 9.92439 152.818 10.9351 152.214 12.0224C151.591 13.1553 151.099 14.3566 150.747 15.603C150.593 16.1357 150.383 16.673 150.41 17.2543C150.41 17.4859 150.214 17.6874 150.268 17.9491C150.29 18.1671 150.254 18.387 150.163 18.586C150.072 18.8524 150.163 19.1766 150.138 19.4731C150.138 19.6653 150.23 19.8899 150.012 20.0382C150.191 20.1655 150.136 20.3555 150.143 20.5292C150.044 20.5083 149.914 20.594 149.87 20.4203C149.827 20.2466 149.941 20.1053 149.822 19.9988H146.634C146.645 20.1855 146.645 20.3726 146.634 20.5593C146.6 20.7677 146.447 20.6936 146.351 20.6936Z" fill="#BB192F"/>
        <path d="M165.965 3.88398C165.965 3.75197 165.883 3.7566 165.791 3.74271C165.745 3.74271 165.64 3.64543 165.745 3.63617C166.038 3.61301 165.96 3.40457 165.963 3.25403C165.963 2.98074 165.963 2.70744 165.963 2.43647C165.98 2.14182 165.98 1.8464 165.963 1.55175C165.928 1.25067 166.137 1.01907 166.116 0.720299C166.084 0.240883 166.063 0.194563 165.599 0.159822C165.487 0.159822 165.313 0.252463 165.29 0.0254929C165.812 0.0254929 166.338 0.0625492 166.855 0.0254929C167.597 -0.0416717 168.324 0.122766 169.043 0.208459C169.786 0.261656 170.517 0.432816 171.208 0.715668C171.803 0.692508 172.327 0.988958 172.858 1.17887C173.811 1.50353 174.731 1.92163 175.604 2.42721C176.451 2.93364 177.274 3.47868 178.073 4.06232C179.149 4.87107 180.135 5.79598 181.014 6.8207C181.841 7.73864 182.554 8.75515 183.138 9.84774C183.321 10.1975 183.527 10.5148 183.536 10.9247C183.548 11.3472 183.422 11.762 183.178 12.1046C182.933 12.4472 182.583 12.6984 182.183 12.8192C181.938 12.8979 181.68 13.1041 181.375 12.9327C181.147 12.8099 180.918 12.7404 180.689 12.6339C180.44 12.5128 180.235 12.315 180.103 12.0688C179.647 11.2815 179.131 10.5311 178.561 9.82458C178.168 9.30497 177.739 8.81499 177.277 8.35853C176.361 7.55256 175.43 6.73732 174.37 6.13516C173.366 5.57236 172.347 5.0003 171.217 4.69922C170.931 4.62511 170.654 4.5232 170.375 4.42593C169.972 4.28063 169.552 4.19256 169.125 4.16422C168.897 4.15264 168.748 3.94883 168.501 4.0021C168.405 4.03968 168.301 4.04852 168.201 4.02757C168.1 4.00661 168.008 3.95674 167.935 3.88398C167.885 3.8284 167.718 3.88398 167.606 3.88398H165.965Z" fill="#6C180F"/>
        <path d="M161.692 21.5301C160.127 21.5301 158.562 21.4977 156.999 21.544C156.37 21.5625 156.031 21.1966 155.658 20.8168C155.749 20.481 155.285 20.1868 155.585 19.8348C155.539 19.455 155.759 19.2164 156.013 18.9802C156.129 18.8653 156.267 18.7752 156.418 18.7151C156.569 18.6551 156.731 18.6263 156.894 18.6305C159.411 18.6305 161.928 18.6305 164.445 18.6305C164.692 18.6501 164.939 18.5944 165.154 18.4706C165.369 18.3467 165.542 18.1603 165.651 17.9357C166.052 17.227 166.478 16.5322 166.869 15.8235C167.123 15.3602 167.372 14.8831 167.633 14.4338C168.102 13.6209 168.549 12.7871 169.038 11.9881C169.267 11.6152 169.496 11.2192 169.693 10.8301C170.137 9.95697 170.643 9.11394 171.148 8.28249C171.299 7.99901 171.528 7.76631 171.807 7.61316C172.448 7.30976 173.318 7.38156 173.725 8.17364C174.045 8.79896 173.968 9.19037 173.647 9.84349C173.293 10.5753 172.826 11.2331 172.464 11.9603C172.103 12.6876 171.588 13.3824 171.192 14.1142C170.988 14.4871 170.791 14.8646 170.59 15.2375C170.132 16.0597 169.675 16.8587 169.217 17.6902C168.599 18.8088 167.944 19.9089 167.315 21.0229C167.228 21.1928 167.093 21.3328 166.927 21.4254C166.761 21.5181 166.572 21.5594 166.384 21.544C164.821 21.507 163.258 21.5301 161.692 21.5301Z" fill="#BB192F"/>
        <path d="M146.351 20.6934C146.447 20.6749 146.6 20.7605 146.618 20.5868C146.629 20.4002 146.629 20.213 146.618 20.0264H149.838C149.957 20.1329 149.854 20.302 149.886 20.4479C149.918 20.5938 150.06 20.5359 150.159 20.5567C150.06 21.1913 150.243 21.8097 150.319 22.4258C150.387 23.0693 150.516 23.7045 150.706 24.3226C150.868 24.9177 151.07 25.5011 151.31 26.0689C151.454 26.3723 151.55 26.7035 151.701 26.9953C152.188 28.0519 152.797 29.0463 153.516 29.9575C153.865 30.4307 154.248 30.8781 154.66 31.2961C154.66 31.4698 154.685 31.632 154.523 31.7894C153.795 32.5005 153.083 33.23 152.374 33.9619C152.334 33.9993 152.286 34.027 152.233 34.0431C152.181 34.0591 152.126 34.063 152.072 34.0545C151.634 33.6828 151.236 33.2669 150.882 32.8131C150.352 32.1528 149.86 31.4614 149.41 30.7426C149.128 30.3411 148.879 29.9166 148.667 29.4734C148.477 29.0473 148.152 28.6837 148.117 28.1903C147.738 27.5282 147.449 26.8169 147.259 26.0758C147.12 25.6288 147.019 25.1679 146.895 24.7163C146.806 24.3874 146.744 24.0539 146.639 23.7251C146.534 23.3962 146.715 23.0557 146.488 22.7546C146.488 22.7407 146.488 22.7106 146.488 22.6875C146.55 22.0297 146.255 21.3882 146.351 20.6934Z" fill="#E33438"/>
        <path d="M152.072 34.0728C152.126 34.0813 152.181 34.0774 152.233 34.0614C152.286 34.0453 152.334 34.0176 152.374 33.9802C153.083 33.2483 153.795 32.5188 154.523 31.8078C154.685 31.6503 154.651 31.4882 154.66 31.3145C155.104 31.9514 155.761 32.3451 156.335 32.8384C156.793 33.2344 157.317 33.5332 157.811 33.8899C158.475 34.3531 159.251 34.6055 159.93 35.0479C160.212 35.0131 160.388 35.2332 160.635 35.3188C161.07 35.474 161.521 35.5898 161.96 35.7404C162.369 35.8627 162.787 35.9533 163.21 36.0113C163.76 36.1117 164.313 36.2028 164.867 36.2846C164.944 36.2846 164.979 36.3472 165.034 36.3773C165.69 36.7432 166.102 37.2458 166.107 38.0541C166.107 38.9411 165.78 39.5595 164.94 39.9069C164.803 39.9693 164.657 40.0069 164.507 40.0181C163.805 40.0435 163.134 39.8582 162.448 39.7656C161.189 39.5989 160.049 39.0523 158.83 38.7767C158.095 38.3135 157.278 38.0216 156.527 37.5839C155.729 37.1207 154.969 36.6066 154.221 36.0692C153.501 35.547 152.833 34.9561 152.225 34.3044C152.159 34.2234 152.056 34.1886 152.072 34.0728Z" fill="#EA768E"/>
        <path d="M183.25 16.9885C182.906 17.102 182.593 16.8634 182.268 16.7083C181.943 16.5531 181.771 16.1547 181.549 15.8583C181.382 15.6267 181.593 15.2816 181.355 15.0523C181.558 14.6123 181.538 14.061 181.938 13.7206C182.31 13.3607 182.798 13.1485 183.311 13.123C183.83 13.1367 184.326 13.3457 184.7 13.709C185.117 14.0634 185.101 14.6354 185.295 15.0986C185.128 15.4854 185.179 15.9463 184.838 16.2821C184.339 16.7916 183.973 16.9885 183.25 16.9885Z" fill="#6C180F"/>
        <path d="M184.012 21.1036C183.529 21.2032 183.183 20.9693 182.847 20.6404C182.678 20.4847 182.543 20.2956 182.449 20.0849C182.355 19.8742 182.305 19.6463 182.302 19.4152C182.3 19.1966 182.341 18.9796 182.423 18.7772C182.504 18.5748 182.625 18.3909 182.778 18.2364C183.108 17.8681 183.593 17.7986 184.039 17.6689C184.943 17.8658 185.689 18.3313 185.714 19.4036C185.726 19.9271 185.467 20.3115 185.133 20.6775C185 20.843 184.827 20.9698 184.63 21.0448C184.432 21.1197 184.219 21.14 184.012 21.1036Z" fill="#6C180F"/>
        <path d="M185.021 23.7944C185.05 23.9835 185.036 24.1768 184.979 24.3595C184.923 24.5422 184.826 24.7094 184.696 24.8482C184.417 25.1748 184.009 25.1864 183.687 25.3879C183.44 25.1933 183.115 25.2697 182.842 25.1215C182.323 24.8343 181.975 23.7319 182.298 23.2131C182.904 22.2427 183.684 22.0551 184.586 22.7082C184.766 22.8163 184.906 22.981 184.984 23.1772C185.063 23.3734 185.076 23.5902 185.021 23.7944Z" fill="#6C180F"/>
        <path d="M183.398 28.0263C183.398 28.8416 182.996 29.2538 182.211 29.2469C181.547 29.2469 180.954 28.7026 180.947 28.0889C180.968 27.7426 181.098 27.4122 181.318 27.1462C181.433 27.0141 181.577 26.9103 181.738 26.8429C181.899 26.7754 182.073 26.7461 182.247 26.7571C183.021 26.7849 183.401 27.1902 183.398 28.0263Z" fill="#6C180F"/>
        <path d="M180.81 31.6601C180.81 32.4013 180.52 32.6908 179.783 32.6954C179.531 32.6954 179.309 32.6954 179.128 32.4638C178.947 32.2322 178.757 32.0353 178.767 31.718C178.776 31.4007 178.963 31.2548 179.11 31.0232C179.194 30.9171 179.299 30.8301 179.418 30.7681C179.538 30.7061 179.669 30.6704 179.803 30.6634C179.937 30.6564 180.071 30.6782 180.196 30.7275C180.321 30.7767 180.435 30.8523 180.529 30.9491C180.79 31.2502 180.81 31.234 180.81 31.6601Z" fill="#6C180F"/>
        <path d="M177.405 34.7452C177.413 34.9543 177.341 35.1585 177.204 35.3149C177.066 35.4712 176.874 35.5676 176.668 35.5836C176.453 35.5638 176.252 35.4678 176.1 35.3126C176.025 35.2463 175.968 35.1619 175.934 35.0671C175.9 34.9723 175.89 34.8703 175.906 34.7707C175.906 34.2171 176.135 33.9462 176.638 33.9346C176.742 33.9345 176.844 33.9556 176.94 33.9968C177.035 34.0379 177.121 34.0982 177.193 34.174C177.265 34.2497 177.32 34.3394 177.357 34.4376C177.393 34.5358 177.41 34.6404 177.405 34.7452Z" fill="#6C180F"/>
        <path d="M172.86 37.5197C172.663 37.5197 172.235 37.1167 172.229 36.9106C172.246 36.7535 172.314 36.6065 172.421 36.4922C172.529 36.3779 172.671 36.3028 172.826 36.2783C172.98 36.297 173.124 36.365 173.237 36.4725C173.351 36.58 173.427 36.7213 173.455 36.8759C173.469 37.075 173.068 37.5081 172.86 37.5197Z" fill="#6C180F"/>
        <path d="M146.488 18.3588V18.6344C146.36 18.6344 146.344 18.5557 146.353 18.4631C146.353 18.4463 146.356 18.4298 146.363 18.4147C146.371 18.3996 146.381 18.3865 146.394 18.3763C146.408 18.3662 146.423 18.3593 146.439 18.3563C146.455 18.3532 146.472 18.3541 146.488 18.3588Z" fill="#E33438"/>
        <path d="M136.254 9.48633H138.771V9.96574C138.771 14.8263 138.771 19.6899 138.771 24.5567C138.781 25.6589 138.385 26.7252 137.661 27.549C137.276 27.9893 136.8 28.3397 136.267 28.576C135.735 28.8123 135.158 28.9289 134.577 28.9177C122.982 28.9039 111.387 28.9039 99.7922 28.9177C94.9133 28.9177 90.032 28.8923 85.1462 28.9363C83.8624 28.9479 82.9012 28.2762 81.8577 27.7319C81.8829 27.2965 81.4137 27.1761 81.297 26.8055C81.2213 26.4677 81.036 26.1652 80.7707 25.9463C80.313 26.1269 80.0727 26.6087 79.6265 26.8727C78.8429 27.3458 77.9408 27.579 77.0291 27.5443C75.9901 27.5305 75.0152 27.4471 74.093 26.8634C73.6791 26.5844 73.3301 26.2178 73.0701 25.7888C72.0677 24.3274 72.1547 22.6969 72.1844 21.0641C72.1844 20.719 72.9007 18.8268 73.125 18.5698C73.8893 17.6966 74.8345 17.0319 75.9718 16.893C76.7362 16.8003 77.4776 16.534 78.2763 16.6081C79.0749 16.6822 79.8782 16.6243 80.6769 16.6243H83.1621V22.859C83.1621 23.1092 83.5283 24.3274 83.6198 24.6377C83.9379 25.8096 84.835 26.076 85.8533 26.113C86.8717 26.1501 87.9129 26.113 88.9404 26.1246C90.2471 26.1547 90.2769 26.1246 90.2723 24.8277C90.254 20.1192 90.2723 15.413 90.2723 10.6999V9.50254H92.8102V25.0199C93.4807 24.8091 93.8331 24.3251 94.1467 23.8943C95.4579 22.0855 97.5427 19.5703 98.7075 18.6392C99.3314 18.1515 99.9925 17.7148 100.685 17.333C101.337 16.9671 102.101 16.8953 102.802 16.6382C103.41 16.4066 104.028 16.7818 104.619 16.9231C107.291 17.5553 109.71 19.8876 110.685 22.3217C111.11 23.3367 111.336 24.4251 111.351 25.5271C111.351 25.8421 110.928 25.9208 111.122 26.252C111.301 26.4442 111.543 26.3377 111.756 26.34C113.166 26.34 114.592 26.4813 115.985 26.3192C119.374 25.9208 122.773 26.2566 126.308 26.069C125.114 25.0361 124.379 23.7391 123.265 22.7896C122.807 22.3982 122.599 21.8099 122.148 21.3999C121.635 20.9304 121.069 20.5238 120.461 20.1887C120.077 19.9901 119.657 19.872 119.226 19.8413C117.535 19.6513 116.221 20.3045 115.091 21.5042C115.038 21.5597 114.992 21.6408 114.928 21.6617C114.828 21.6921 114.723 21.696 114.621 21.6732C114.58 21.6617 114.544 21.5505 114.541 21.4833C114.541 20.7515 114.553 20.0173 114.541 19.2854C114.535 19.1916 114.555 19.0978 114.6 19.0155C114.645 18.9333 114.713 18.8661 114.795 18.8222C115.594 18.3845 116.141 17.6271 116.997 17.2195C117.708 16.8814 118.452 16.8768 119.164 16.6428C119.747 16.4506 120.283 16.9578 120.878 16.8976C121.494 17.4048 122.285 17.6387 122.857 18.2085C123.43 18.7782 124.057 19.3016 124.544 19.9362C125.459 21.1405 126.546 22.2059 127.421 23.4612C128.066 24.403 128.911 25.1871 129.894 25.7564C130.261 25.986 130.681 26.1146 131.112 26.1293C132.064 26.1177 133.027 26.2057 133.968 26.1015C134.847 26.0065 135.691 25.6244 135.968 24.6817C136.169 24.0898 136.282 23.4708 136.302 22.8451C136.279 18.6392 136.291 14.4334 136.291 10.2275L136.254 9.48633ZM96.1857 26.1246C99.0897 26.1246 101.907 26.1246 104.708 26.1246C105.482 26.1501 106.256 26.0793 107.012 25.9139C108.276 25.6012 108.777 24.6401 108.47 23.3246C108.282 22.5232 107.5 22.2244 107.308 21.4972C106.729 21.4185 106.557 20.8024 106.095 20.5708C105.632 20.3392 105.266 19.9733 104.836 19.7347C103.841 19.1789 102.776 18.8454 101.715 19.6467C101.371 19.9061 100.955 20.0821 100.653 20.3786C99.4536 21.5597 98.1858 22.6946 97.3482 24.1861C96.9958 24.8068 96.3207 25.2283 96.1857 26.1246ZM80.6448 19.1766C79.4686 19.1766 78.4067 19.1766 77.3426 19.1766C76.8392 19.191 76.3519 19.3589 75.9444 19.6583C75.3288 20.0659 74.839 20.5592 74.9123 21.393C74.3424 22.2847 74.9946 23.0582 75.1686 23.8735C75.2503 24.0878 75.4054 24.2654 75.6057 24.3737C76.3998 24.8624 77.2945 25.1612 78.2099 24.9342C78.9635 24.7355 79.6165 24.2588 80.0407 23.5978C80.3839 23.0628 80.7272 22.5024 80.6723 21.7844C80.5991 20.946 80.6448 20.103 80.6448 19.1766Z" fill="#40403E"/>
        <path d="M57.0441 10.2534C56.7924 10.9482 56.4469 11.5642 56.3576 12.222C56.2295 13.1484 55.591 13.5329 54.9228 13.82C54.3209 14.0771 53.8335 14.4963 53.2522 14.765C52.6709 15.0336 52.0462 15.2282 51.5427 15.6057C51.0949 15.9015 50.626 16.1631 50.1399 16.3885C49.6822 16.6201 49.2245 16.8239 48.9957 17.3288C49.6822 18.3826 50.696 19.0635 51.6251 19.7954C52.991 20.8445 54.2685 22.0065 55.4445 23.2694C55.8105 23.6624 56.0788 24.1379 56.2273 24.6566C56.3757 25.1753 56.4 25.7223 56.2981 26.2524C56.6528 26.4377 56.9961 26.352 57.3256 26.352C58.5591 26.352 59.7674 26.7828 61.0054 26.5836C61.7034 26.4701 62.4449 26.4354 63.0284 25.9444C63.3615 25.6596 63.6296 25.305 63.8141 24.9052C63.9986 24.5053 64.0952 24.0697 64.0971 23.6284C64.1429 22.2388 64.1086 20.8654 64.1086 19.4596H66.6259V20.4508C66.6259 21.8034 66.571 23.1559 66.6465 24.5038C66.6686 25.3142 66.4909 26.1174 66.1293 26.8407C65.922 27.2781 65.6279 27.6675 65.2652 27.9847C64.9026 28.3019 64.4793 28.54 64.0216 28.6843C63.5337 28.8419 63.0233 28.9162 62.5112 28.9043C46.3396 28.9043 30.1679 28.9105 13.9962 28.9228C12.3943 28.9228 11.3736 28.1145 10.4171 27.0283C10.2866 26.3173 9.86096 25.6966 9.86096 24.9439C9.86096 19.9691 9.86096 14.985 9.86096 9.96387H12.3783V12.0483C12.3783 15.9461 12.3599 19.844 12.3897 23.7419C12.3758 24.2603 12.514 24.7714 12.7869 25.2104C13.0598 25.6494 13.4551 25.9967 13.923 26.2084C14.0534 26.2733 14.1518 26.3868 14.3166 26.3729C14.4813 26.359 14.6987 26.3729 14.8887 26.3729C27.1685 26.3729 39.4498 26.3729 51.7327 26.3729C52.2178 26.3729 52.6915 26.3729 53.0874 26.044C53.2865 25.8796 53.3849 25.7522 53.227 25.3955C52.7487 24.3209 51.9295 23.5913 51.0507 22.9104C50.8753 22.7778 50.7072 22.6355 50.5472 22.4843C49.8744 21.8474 49.0849 21.3564 48.4076 20.7449C47.6659 20.1001 46.9932 19.3782 46.4006 18.591C46.2319 18.3677 46.1132 18.11 46.0527 17.8356C45.9923 17.5613 45.9915 17.2769 46.0505 17.0023C46.126 16.5391 46.2312 16.0249 46.6363 15.6265C47.0621 15.2163 47.5328 14.8566 48.0391 14.5542C50.5404 13.0511 53.1446 11.7449 55.7329 10.4132C56.099 10.2256 56.5064 9.9546 57.0441 10.2534Z" fill="#40403E"/>
        <path d="M5.75313 14.3105H8.27042V16.6266C8.27042 18.44 8.30017 20.2558 8.27042 22.0692C8.27884 23.4228 7.87973 24.7469 7.1262 25.8652C6.21082 27.1506 5.11465 28.1627 3.46468 28.4661C2.6889 28.6073 1.90396 28.7255 1.13046 28.8922C0.860427 28.9501 0.812371 28.7973 0.702525 28.5448C0.389341 27.7619 0.159205 26.9475 0.0159912 26.1153C0.473681 26.1153 0.8467 26.1153 1.21972 26.1153C1.76451 26.1162 2.30389 26.0059 2.80561 25.791C3.30733 25.5761 3.76109 25.261 4.13977 24.8647C4.52423 24.464 4.97963 24.1305 5.20161 23.5746C5.48538 22.8636 5.76457 22.1572 5.76686 21.3814C5.76686 19.2576 5.76686 17.1338 5.76686 15.0123L5.75313 14.3105Z" fill="#40403E"/>
        <path d="M47.1969 14.0285C47.1625 13.2874 47.1969 12.5972 47.5836 11.8376C47.8994 11.2262 48.5242 11.1428 48.84 10.6564C50.1261 10.1469 51.2131 9.2529 52.5015 8.73643C53.6457 8.27323 54.735 7.68496 55.8357 7.11522C56.2774 6.88362 56.8289 6.88362 57.1676 6.43662C57.2225 6.36483 57.4788 6.41578 57.4628 6.63812C57.4862 6.8626 57.4683 7.08952 57.4102 7.30745C57.2248 7.69529 57.0835 8.10322 56.9891 8.52336C56.95 8.70936 56.8672 8.88309 56.7477 9.02984C56.6282 9.17659 56.4755 9.29203 56.3026 9.36639C54.4009 10.2928 52.5015 11.2447 50.6227 12.2244C49.6157 12.7501 48.6454 13.3499 47.6706 13.9359C47.608 13.9945 47.5304 14.0341 47.4468 14.0505C47.3631 14.0669 47.2765 14.0593 47.1969 14.0285Z" fill="#40403E"/>
        <path d="M101.927 14.2761C101.927 13.5558 101.927 12.868 101.927 12.1917C101.927 11.7285 102.129 11.5548 102.614 11.5479C103.335 11.5479 104.056 11.5479 104.834 11.5479V14.29L101.927 14.2761Z" fill="#40403E"/>
        <path d="M62.6965 17.0898C61.9093 17.0898 61.1564 17.0898 60.4081 17.0898C59.9504 17.0898 59.7764 16.8883 59.7673 16.395C59.7559 15.8183 59.7673 15.237 59.7673 14.6094H62.6965V17.0898Z" fill="#40403E"/>
    </g>
    <defs>
        <clipPath id="clip0_8727_15241">
            <rect width="185.714" height="40" fill="white"/>
        </clipPath>
    </defs>
</svg>
