<svg width="173" height="61" viewBox="0 0 173 61" fill="none" xmlns="http://www.w3.org/2000/svg">
    <g clip-path="url(#clip0_4033_7416)">
        <path d="M162.152 29.2683C161.62 28.512 162.368 27.2183 163.343 27.3954C163.174 27.7225 162.697 27.613 162.469 27.8873C162.293 28.0988 162.335 28.4296 162.48 28.646C162.657 28.8121 162.912 28.8539 163.133 28.9449C162.873 29.1908 162.523 29.5204 162.145 29.2708L162.152 29.2683ZM162.779 28.0619C162.832 27.9254 163.002 27.8971 163.111 27.8159C163.111 28.0336 163.111 28.2525 163.125 28.4702C163.452 28.4702 163.563 28.1652 163.678 27.918C164.02 27.8814 164.367 27.9006 164.703 27.9746C164.24 28.207 163.794 28.4812 163.308 28.6669C163.025 28.646 162.629 28.3804 162.779 28.0619Z" fill="white"/>
        <path d="M127.592 0.0226898C133.757 -0.0228115 139.924 0.0165405 146.09 0.00301313C149.423 0.0177703 152.758 -0.02404 156.092 0.0239208C156.037 0.352268 155.967 0.676926 155.903 1.00773C146.525 1.02495 137.147 1.02495 127.768 1.00773C127.699 0.683075 127.643 0.357187 127.592 0.0239208V0.0226898ZM127.864 1.53038C128.526 1.49103 129.191 1.50456 129.854 1.50579H153.958C154.577 1.50579 155.196 1.49718 155.814 1.52546C155.341 4.40311 154.893 7.28445 154.434 10.1646C153.396 10.1264 152.643 9.14877 152.543 8.19694C152.813 7.79603 153.209 7.45908 153.34 6.98193C153.471 6.50478 153.496 5.99812 153.611 5.51482C153.736 4.95282 154.06 4.45599 154.213 3.90014C154.014 3.96493 153.829 4.06633 153.667 4.19897C153.124 4.65136 152.63 5.15876 152.195 5.71281C151.555 5.03029 150.91 4.33917 150.142 3.79438C150.1 4.27645 150.463 4.65521 150.591 5.10039C150.871 5.76815 150.779 6.52446 151.08 7.18484C151.246 7.55377 151.554 7.84153 151.757 8.19325C151.727 8.61638 151.575 9.02226 151.318 9.36258C151.061 9.7029 150.71 9.96334 150.306 10.1129C149.517 10.3023 148.584 10.2248 147.995 9.62101C147.558 9.24347 147.558 8.56833 147.058 8.24859C146.884 9.10205 147.473 9.88295 148.167 10.3207C149.367 11.0586 151.165 10.6638 151.828 9.39965C152.171 8.96308 152.046 8.40846 152.077 7.89934C152.189 7.98292 152.289 8.08142 152.373 8.19202C152.336 8.56095 152.217 8.96308 152.446 9.2988C152.804 10.0367 153.555 10.4868 154.336 10.6958C154.301 10.9418 154.267 11.1779 154.232 11.4177C147.814 11.4534 141.394 11.4177 134.976 11.4337C133.137 11.4165 131.299 11.4693 129.462 11.4066C129.423 11.1607 129.386 10.9147 129.349 10.6626C129.985 10.381 130.622 10.0108 130.953 9.37997C131.22 9.00489 131.153 8.53512 131.047 8.11823C131.155 8.05429 131.264 7.99525 131.374 7.92762C131.359 8.36664 131.275 8.84256 131.525 9.23855C131.73 9.67421 132.059 10.0421 132.471 10.2979C132.884 10.5536 133.363 10.6863 133.85 10.6798C135.152 10.7671 136.511 9.61732 136.396 8.29163L136.075 8.406C135.859 9.15615 135.375 9.89893 134.576 10.1277C133.934 10.2445 133.194 10.2728 132.643 9.86942C132.033 9.46728 131.702 8.76263 131.644 8.05306C131.964 7.84066 132.216 7.54181 132.369 7.19222C132.657 6.55889 132.583 5.83948 132.824 5.19139C132.975 4.72531 133.242 4.30473 133.37 3.83004C133.183 3.89528 133.01 3.99272 132.858 4.11781C132.29 4.62089 131.752 5.15461 131.245 5.7165C130.681 5.02783 130.07 4.32933 129.274 3.89522C129.378 4.45722 129.687 4.95282 129.83 5.50252C129.971 6.01656 129.984 6.55643 130.136 7.06678C130.279 7.5095 130.657 7.81202 130.904 8.19325C130.857 8.64228 130.677 9.06785 130.387 9.41748C130.097 9.76711 129.709 10.0255 129.272 10.1609C128.801 7.28322 128.306 4.40803 127.872 1.52546L127.864 1.53038ZM131.102 2.49944C130.988 3.00487 131.085 3.52137 131.068 4.03172C130.894 3.69231 130.858 3.26927 130.595 2.98519L130.17 2.95814C130.151 3.54597 130.602 3.98376 130.957 4.40311L131.356 4.21004C131.445 3.73904 131.606 3.27173 131.584 2.7872C131.584 2.53141 131.278 2.56708 131.102 2.49944ZM136.2 2.77367C136.212 3.27542 136.345 3.76979 136.325 4.27522L136.633 4.28506C136.618 3.77839 136.724 3.28034 136.741 2.77736C136.741 2.45516 136.212 2.46008 136.194 2.77736L136.2 2.77367ZM141.465 2.53756C141.303 3.09587 141.474 3.66526 141.59 4.21373L142.006 4.38713C142.381 3.99729 142.81 3.55703 142.795 2.9815L142.33 2.96306C142.17 3.35535 142.029 3.75503 141.871 4.14855C141.881 3.62467 141.935 3.10202 141.924 2.57691C141.77 2.56708 141.616 2.55355 141.464 2.53756H141.465ZM146.732 2.51665C146.538 3.09464 146.824 3.68001 146.814 4.26538C147.021 4.258 147.29 4.4191 147.445 4.22111C147.763 3.88504 147.993 3.47772 148.116 3.03439L147.667 2.92248C147.418 3.3037 147.308 3.75011 147.125 4.16331C147.094 3.70092 147.195 3.24714 147.22 2.78843C147.194 2.54248 146.916 2.57322 146.732 2.51665ZM151.884 2.58429C151.849 3.13892 151.99 3.67878 152.092 4.21988L152.493 4.43509C152.853 4.0268 153.207 3.58901 153.34 3.05283L152.933 2.89419C152.653 3.23361 152.567 3.6714 152.377 4.05632C152.334 3.54474 152.467 3.02947 152.355 2.5228L151.884 2.58429ZM131.534 4.35146C132.033 4.08337 132.336 3.54228 132.408 2.99872L131.946 2.94092C131.727 3.38364 131.534 3.84849 131.53 4.35023L131.534 4.35146ZM135.309 3.02455C135.475 3.55212 135.73 4.13134 136.257 4.39328C136.185 3.878 136.062 3.36027 135.758 2.91756L135.308 3.0184L135.309 3.02455ZM137.068 3.09956C136.869 3.50632 136.737 3.9412 136.676 4.38835C137.194 4.10059 137.514 3.54105 137.627 2.97905C137.447 2.99872 137.155 2.86837 137.068 3.10202V3.09956ZM140.541 2.99995C140.637 3.52998 140.923 4.06862 141.409 4.34285C141.434 3.83865 141.22 3.37626 140.996 2.93723L140.541 2.99995ZM145.787 2.97659C145.911 3.49432 146.144 4.18052 146.726 4.31949C146.661 3.90089 146.534 3.49375 146.351 3.11063C146.265 2.88681 145.968 3.00733 145.789 2.97659H145.787ZM151.013 2.9938C151.112 3.52998 151.407 4.07231 151.9 4.34654C151.882 3.84986 151.74 3.36525 151.485 2.936L151.013 2.9938ZM129.629 3.20901C129.544 3.3492 129.459 3.4894 129.373 3.62959C129.759 4.07999 130.228 4.45536 130.754 4.73638C130.505 4.15347 130.174 3.57179 129.63 3.2127L129.629 3.20901ZM132.654 3.30124C132.333 3.75257 131.957 4.1879 131.815 4.73392C132.266 4.43632 132.726 4.12642 133.064 3.70707C133.072 3.5681 133.075 3.42914 133.072 3.28894L132.648 3.30124H132.654ZM134.619 3.28526C134.617 3.51199 134.671 3.73574 134.777 3.93703H134.395C134.606 4.46583 134.883 4.97127 135.02 5.52466C135.126 6.01657 135.144 6.51708 135.296 7.00038C135.42 7.45539 135.763 7.79849 136.065 8.14652C136.309 8.0906 136.563 8.08808 136.808 8.13914C137.064 7.89933 137.33 7.65461 137.485 7.33487C137.766 6.77656 137.751 6.13831 137.895 5.54311C138.028 4.9725 138.338 4.4646 138.504 3.90506C137.646 4.27399 137.1 5.07826 136.456 5.71281C135.956 5.09793 135.287 4.62201 134.811 3.9813C135.152 4.19814 135.477 4.43768 135.785 4.69826C135.785 4.6257 135.785 4.48059 135.793 4.40926C135.586 4.01719 135.326 3.6544 135.021 3.33076C134.885 3.31231 134.75 3.30001 134.614 3.29386L134.619 3.28526ZM137.868 3.30616C137.535 3.72059 137.206 4.14732 137.01 4.64538C137.482 4.46007 137.897 4.15856 138.216 3.76978C138.359 3.63574 138.223 3.44513 138.203 3.29018L137.868 3.30616ZM139.867 3.29018C139.852 3.3738 139.82 3.54228 139.805 3.6259C139.894 3.74888 139.985 3.87186 140.075 4.00221L139.561 3.89522C139.81 4.5101 140.141 5.10777 140.279 5.76569C140.372 6.2121 140.339 6.68679 140.537 7.10737C140.712 7.54516 141.079 7.87597 141.249 8.31377C141.194 8.71488 141.031 9.09405 140.776 9.41163C140.521 9.72921 140.184 9.97354 139.8 10.1191C139.101 10.274 138.28 10.2629 137.707 9.78087C137.166 9.3935 137.017 8.72328 136.694 8.18218C136.591 8.40969 136.48 8.6581 136.569 8.90897C136.704 9.31527 136.938 9.68259 137.252 9.9784C137.565 10.2742 137.947 10.4894 138.365 10.6048C139.115 10.7573 139.937 10.6921 140.564 10.2359C141.118 9.91246 141.359 9.30127 141.688 8.79091C141.98 9.34185 142.27 9.9432 142.838 10.2666C143.449 10.6909 144.233 10.7376 144.95 10.6233C145.367 10.522 145.752 10.3211 146.071 10.0384C146.391 9.7557 146.634 9.3999 146.781 9.00243C146.872 8.66179 146.803 8.30761 146.796 7.96205C146.992 8.03092 147.24 8.25597 147.406 8.01247C148.055 7.50827 148.207 6.67203 148.298 5.91204C148.369 5.2 148.742 4.57159 148.996 3.91489L148.594 3.9604C148.66 3.81406 148.729 3.66771 148.797 3.52137C148.763 3.46603 148.695 3.35412 148.66 3.29879L148.369 3.28034C148.021 3.68493 147.687 4.11658 147.52 4.63308C147.895 4.46091 148.21 4.20143 148.553 3.98253C148.462 4.23587 148.243 4.40434 148.053 4.57897C147.661 4.93076 147.293 5.3079 146.952 5.70789C146.503 5.19508 145.969 4.7622 145.556 4.21988C145.842 4.38713 146.115 4.57282 146.401 4.7413C146.242 4.19282 145.853 3.76363 145.527 3.30493L145.09 3.29263C145.107 3.54714 145.176 3.7956 145.293 4.02311C145.132 3.94441 144.97 3.86693 144.807 3.79192C144.984 4.33179 145.287 4.82246 145.442 5.37094C145.643 5.99197 145.586 6.67695 145.883 7.27215C146.046 7.6251 146.375 7.87597 146.537 8.22768C146.437 9.15615 145.704 10.0846 144.716 10.1781C144.168 10.2285 143.567 10.2162 143.093 9.89647C142.508 9.56075 142.195 8.92004 142.042 8.29778C141.997 8.05182 142.271 7.91655 142.398 7.74193C142.862 7.2783 142.935 6.59701 143.03 5.98459C143.1 5.24673 143.467 4.5925 143.745 3.91981L143.34 3.96409C143.416 3.80914 143.492 3.65542 143.567 3.5017C143.432 3.4316 143.306 3.24836 143.135 3.31723C142.685 3.68616 142.392 4.20389 142.186 4.73515C142.553 4.50518 142.899 4.24325 143.248 3.98745L143.257 4.18299C142.655 4.6082 142.126 5.12597 141.69 5.7165C141.19 5.12745 140.584 4.63308 140.084 4.04402C140.452 4.25677 140.781 4.52486 141.138 4.75237C140.983 4.20143 140.586 3.7747 140.264 3.31231L139.867 3.28894V3.29018ZM150.334 3.28894C150.326 3.42986 150.326 3.57107 150.334 3.71198C150.704 4.11602 151.132 4.46447 151.604 4.74622C151.479 4.1879 151.048 3.77716 150.75 3.30616L150.33 3.28894H150.334ZM152.663 4.73392C153.173 4.44164 153.633 4.07325 154.028 3.64189C153.942 3.50169 153.857 3.36027 153.779 3.21885C153.234 3.57302 152.921 4.16085 152.667 4.73392H152.663ZM130.741 4.72531C130.869 4.99031 131.063 5.21913 131.305 5.39061C131.459 5.23218 131.592 5.05535 131.701 4.86427C131.663 4.70698 131.576 4.56547 131.451 4.45968C131.177 4.3859 130.962 4.59988 130.746 4.72531H130.741ZM136.199 4.41664C136.157 4.59865 136.016 4.77696 136.062 4.9688C136.185 5.13186 136.32 5.28636 136.465 5.4312C136.612 5.21353 136.898 5.02783 136.894 4.74622C136.788 4.44615 136.466 4.44493 136.199 4.41664ZM141.159 4.85198L141.615 5.37586C141.81 5.21599 141.99 5.04505 142.173 4.86796C142.006 4.70071 141.895 4.35761 141.598 4.45599C141.382 4.47075 141.302 4.72285 141.159 4.85198ZM146.642 4.55192C146.319 4.82615 146.683 5.1668 146.858 5.39676C147.052 5.22706 147.233 5.04997 147.42 4.86919C147.275 4.5925 146.939 4.25431 146.642 4.55192ZM151.824 4.60971C151.558 4.90117 151.935 5.16434 152.105 5.38447C152.294 5.2123 152.48 5.03275 152.658 4.85075C152.486 4.58389 152.082 4.22603 151.824 4.60479V4.60971ZM129.632 11.9908C129.87 11.9723 130.11 11.9563 130.351 11.9526H151.208C152.159 11.9723 153.113 11.9047 154.06 11.9994C154.071 12.0867 154.092 12.2613 154.102 12.3486C145.931 12.3585 137.76 12.3585 129.589 12.3486L129.629 11.9895L129.632 11.9908ZM129.644 12.6573C137.777 12.6573 145.909 12.6573 154.041 12.6573C153.059 18.6475 152.127 24.645 151.168 30.6377C150.694 32.8869 150.493 35.2899 151.262 37.4998C151.728 38.9238 152.819 40.1696 154.249 40.7144C155.348 41.1276 156.388 41.756 157.136 42.6623C157.542 43.1641 157.858 43.7863 157.798 44.4455C157.786 45.0604 157.284 45.5978 156.7 45.765C156.095 45.8708 155.451 45.888 154.88 45.6297C153.455 45.1169 151.779 44.8365 150.384 45.583C149.481 46.0147 148.859 46.9948 149.01 47.9946C149.245 49.5379 150.651 50.8009 152.204 50.994C159.017 50.994 165.831 50.9866 172.644 50.994C172.644 51.3924 172.644 51.7909 172.644 52.1893C170.371 52.2582 168.095 52.1992 165.821 52.2188C152.61 52.2114 139.398 52.2348 126.187 52.2078C126.17 51.802 126.174 51.3956 126.2 50.9903C131.914 50.9903 137.627 50.9903 143.34 50.9903C143.993 50.9817 144.653 51.037 145.298 50.9128C145.182 50.8424 145.056 50.7902 144.924 50.7579C142.027 50.4123 139.365 48.8222 137.537 46.6086C135.504 44.1614 134.415 41.0981 133.802 38.0298C132.39 29.5764 131.054 21.1156 129.647 12.6634L129.644 12.6573ZM140.364 19.6042C140.356 20.7036 140.312 21.8031 140.34 22.9012C140.869 22.7953 141.404 22.7193 141.942 22.6737C142.287 21.7686 142.587 20.8475 142.942 19.9449C143.06 19.6743 143.12 19.3226 142.874 19.1C142.463 18.7311 141.86 18.8024 141.347 18.8061C140.886 18.7975 140.322 19.0804 140.367 19.6042H140.364ZM137.507 20.1244C137.286 20.395 137.37 20.759 137.525 21.0394C137.938 21.8547 138.333 22.6811 138.743 23.4989C139.213 23.3366 139.652 23.1017 140.104 22.8975C140.056 21.8154 140.104 20.7295 140.025 19.6497C139.954 19.1714 139.367 19.2808 139.016 19.3214C138.462 19.4554 137.878 19.6768 137.507 20.1244ZM143.736 19.3644C143.426 19.5034 143.344 19.8465 143.236 20.1306C142.942 20.9816 142.569 21.8067 142.306 22.67C142.778 22.7783 143.25 22.8914 143.728 22.9799C144.294 22.4056 144.727 21.728 145.26 21.123C145.509 20.8229 145.83 20.4614 145.66 20.042C145.333 19.3816 144.419 19.0582 143.741 19.3644H143.736ZM145.779 21.0197C145.17 21.6653 144.655 22.3946 144.088 23.0746C144.402 23.3715 144.697 23.6869 144.972 24.0191C145.679 23.66 146.385 23.296 147.079 22.9123C147.465 22.6996 147.829 22.2974 147.774 21.835C147.629 21.3564 147.31 20.9471 146.878 20.6852C146.482 20.5327 146.045 20.7159 145.779 21.0197ZM135.858 21.3345C135.403 21.7219 135.274 22.3183 135.247 22.8877C135.981 23.5739 136.795 24.1728 137.52 24.8701C137.848 24.5098 138.161 24.1322 138.487 23.7731C138.154 22.7893 137.602 21.9088 137.175 20.9705C136.719 20.9939 136.232 21.0566 135.858 21.3394V21.3345ZM133.769 24.7188C134.092 25.0484 134.556 25.1911 134.963 25.3964C135.628 25.6744 136.232 26.09 136.938 26.2646C137.098 25.8957 137.244 25.5268 137.381 25.1492C136.817 24.6241 136.202 24.1568 135.633 23.644C135.355 23.4313 135.096 23.1386 134.729 23.0968C133.903 22.9738 133.401 24.088 133.774 24.7188H133.769ZM139.969 23.5383C139.488 23.7621 139.543 24.3806 139.719 24.7852C140 25.4647 140.487 26.0425 141.113 26.4405C141.499 26.3975 141.842 26.1945 142.206 26.0716C142.168 25.4247 141.862 24.8221 141.884 24.1691C141.888 23.8526 141.87 23.5361 141.829 23.2222C141.197 23.2407 140.545 23.2911 139.955 23.5407L139.969 23.5383ZM142.293 23.3833C142.23 24.2712 142.116 25.3005 142.717 26.0457C143.134 26.1208 143.56 26.0679 143.981 26.058C144.02 25.4346 144.204 24.8282 144.516 24.2847C144.041 23.5715 143.123 23.3071 142.293 23.3833ZM137.642 25.5711C137.49 26.0113 137.927 26.3716 138.246 26.6077C138.87 27.0062 139.561 27.4231 140.325 27.4132C140.525 27.1978 140.709 26.9685 140.876 26.727C140.49 26.3261 140.046 25.9732 139.734 25.5096C139.449 25.089 139.217 24.6377 138.959 24.2023C138.292 24.3696 137.89 24.982 137.642 25.5711ZM133.521 25.4481C133.146 25.6768 133.05 26.138 133.002 26.5389C132.967 26.8119 132.991 27.1538 133.258 27.3124C134.008 27.6039 134.828 27.5743 135.605 27.7477C135.99 27.8338 136.382 27.8892 136.772 27.9482C136.782 27.5178 136.808 27.0874 136.822 26.6594C136.049 26.2905 135.257 25.9584 134.467 25.6252C134.168 25.5157 133.843 25.3497 133.521 25.4481ZM137.427 26.3593C137.189 27.0234 137.224 27.7477 137.377 28.4253C137.464 28.7414 137.599 29.0845 137.901 29.2579C138.714 29.3477 139.517 29.1349 140.326 29.0993C140.309 28.6405 140.304 28.1806 140.315 27.7219C139.257 27.5092 138.177 27.171 137.427 26.3593ZM141.424 26.9742C140.863 27.3985 140.681 28.1683 140.842 28.8275C140.937 29.2763 141.255 29.6305 141.565 29.9564C142.133 30.5491 142.647 31.1862 143.215 31.7814C145.322 33.9458 147.399 36.2565 148.564 39.0665C149.396 41.1657 149.606 43.4555 149.572 45.6925C149.988 45.4145 150.406 45.1169 150.906 45.0038C151.59 44.791 152.321 44.8452 153.023 44.9337C152.555 43.8823 152.362 42.7435 152.038 41.6478C151.324 39.3678 150.498 37.0976 149.29 35.0255C147.847 32.7836 146.028 30.7926 144.711 28.4684C144.353 27.8535 144.152 27.1538 143.991 26.4614C143.116 26.3667 142.156 26.443 141.419 26.9742H141.424ZM133.634 28.1573C133.26 28.5102 133.282 29.0833 133.363 29.5469C133.488 29.9416 133.979 29.9158 134.318 29.9232C135.365 29.8802 136.413 29.8863 137.462 29.8851C137.213 29.3575 136.924 28.8459 136.766 28.2864C136.047 28.1643 135.322 28.0818 134.594 28.0392C134.283 28.0294 133.943 27.9839 133.659 28.1437L133.634 28.1573ZM138.352 29.5825C137.898 30.1298 138.588 31.0238 139.248 30.8554C139.95 30.7865 140.622 30.5565 141.322 30.4569C141.021 30.088 140.743 29.7018 140.412 29.3612C139.717 29.2923 139.045 29.5616 138.352 29.5825ZM135.59 30.2823C135.091 30.3266 134.561 30.3069 134.105 30.5442C133.883 30.6106 133.905 30.859 133.939 31.0361C134.05 31.4218 134.304 31.7523 134.651 31.9621C135.912 31.8687 137.149 31.5243 138.355 31.1714C138.068 30.8161 137.803 30.4441 137.561 30.0572C136.895 30.0425 136.251 30.238 135.59 30.2823ZM139.522 31.1148C139.327 31.1763 139.055 31.2858 139.101 31.5354C139.122 32.0876 139.707 32.6336 140.284 32.4442C141.033 32.2487 141.799 32.0937 142.519 31.8047C142.24 31.4266 141.934 31.0683 141.604 30.7324C140.901 30.8111 140.215 30.9783 139.522 31.1148ZM136.052 32.1282C135.728 32.2351 135.303 32.2376 135.107 32.5537C135.037 32.9595 135.294 33.3751 135.643 33.5781C135.944 33.7994 136.306 33.5781 136.622 33.5116C137.52 33.2214 138.435 32.989 139.341 32.7197C138.945 32.4302 138.656 32.0213 138.518 31.5551C137.681 31.6781 136.88 31.9609 136.052 32.1282ZM141.011 32.5561C140.761 32.6397 140.372 32.7246 140.386 33.0542C140.317 33.4588 140.661 33.8191 141.019 33.9568C141.383 33.9667 141.719 33.7957 142.067 33.7182C142.667 33.5362 143.297 33.4526 143.868 33.1833C143.522 32.8476 143.264 32.3938 142.829 32.1651C142.205 32.197 141.613 32.411 141.013 32.5561H141.011ZM137.409 33.6531C137.067 33.7564 136.659 33.7662 136.41 34.0638C136.208 34.5963 136.731 35.2751 137.309 35.1079C138.387 34.8152 139.464 34.5176 140.525 34.1671C140.075 33.9335 139.874 33.4735 139.798 33.0025C138.989 33.1796 138.202 33.4329 137.405 33.6531H137.409ZM141.811 34.0884C141.419 34.3737 141.594 35.0107 141.959 35.2407C142.312 35.3784 142.708 35.2739 143.055 35.1878C143.71 34.987 144.367 34.7927 145.026 34.6049C144.757 34.1911 144.432 33.8162 144.058 33.4907C143.309 33.7035 142.559 33.8818 141.81 34.0884H141.811ZM137.991 35.2444C137.48 35.3231 137.512 35.9724 137.77 36.286C138.004 36.6303 138.483 36.543 138.828 36.452C139.767 36.1852 140.701 35.906 141.641 35.6379C141.327 35.2992 141.086 34.9014 140.932 34.4684C139.933 34.6344 138.969 34.9812 137.991 35.2444ZM142.835 35.601C142.616 35.9773 142.754 36.5774 143.196 36.7361C143.506 36.8492 143.835 36.7164 144.137 36.6377C144.81 36.4127 145.511 36.2688 146.166 35.9945C145.874 35.6101 145.556 35.2449 145.216 34.9013C144.404 35.0693 143.608 35.3033 142.835 35.601ZM138.784 36.7816C138.776 37.0989 138.659 37.4813 138.909 37.742C139.146 38.0618 139.601 37.9646 139.938 37.897C140.898 37.635 141.842 37.3178 142.81 37.0792C142.436 36.7496 142.2 36.3204 141.98 35.8876C140.903 36.1458 139.847 36.4766 138.784 36.7816ZM143.861 36.9993C143.745 37.4026 143.751 37.8884 144.138 38.1503C144.524 38.2905 144.942 38.1847 145.312 38.0446C145.911 37.8195 146.561 37.7248 147.133 37.4481C146.918 37.0327 146.671 36.6339 146.395 36.2553C145.547 36.4914 144.714 36.7779 143.861 36.9993ZM139.885 38.229C139.669 38.6385 139.81 39.1968 140.251 39.3961C140.672 39.4932 141.079 39.2866 141.479 39.1846C142.238 38.9386 143.031 38.7836 143.772 38.4787C143.602 38.3144 143.47 38.116 143.385 37.897C143.3 37.678 143.264 37.4436 143.279 37.2095C142.155 37.5785 140.993 37.8244 139.885 38.229ZM144.895 38.475C144.415 38.7209 144.66 39.3727 145.009 39.6248C145.391 39.8007 145.818 39.6629 146.191 39.5326C146.706 39.3493 147.24 39.2288 147.759 39.0616L147.87 38.898C147.764 38.4725 147.514 38.1024 147.309 37.7187C146.511 37.9954 145.685 38.1823 144.895 38.475ZM141.254 39.5436C141.052 39.6223 140.786 39.6519 140.686 39.872C140.52 40.2114 140.745 40.6098 141.027 40.8177C141.293 40.9788 141.618 40.8816 141.901 40.8177C142.829 40.5385 143.763 40.2766 144.698 40.0159C144.363 39.6469 144.109 39.2005 144.14 38.689C143.195 39.0222 142.221 39.2682 141.258 39.5498L141.254 39.5436ZM145.973 39.899C145.723 39.9667 145.358 40.0675 145.386 40.391C145.293 40.9308 145.898 41.4891 146.43 41.2518C147.103 41.0353 147.777 40.8218 148.452 40.6111C148.388 40.1602 148.258 39.721 148.065 39.3075C147.352 39.4502 146.675 39.7183 145.973 39.9003V39.899ZM141.753 41.162C141.199 41.2985 141.332 42.1311 141.744 42.361C142.083 42.5184 142.466 42.4041 142.809 42.3229C143.711 42.0474 144.62 41.7941 145.526 41.5322C145.334 41.3674 145.116 41.2223 144.977 41.0083C144.876 40.7869 144.872 40.5373 144.83 40.3012C143.792 40.5471 142.784 40.8964 141.753 41.162ZM146.045 41.7068C145.693 42.1618 146.098 43.0128 146.715 42.8923C147.445 42.805 148.118 42.4643 148.838 42.3106C148.773 41.8445 148.667 41.3858 148.569 40.9259C147.737 41.2124 146.869 41.3944 146.046 41.7068H146.045ZM142.487 42.7373C142.28 42.8271 141.967 42.8431 141.931 43.1173C141.83 43.5293 142.103 44.1159 142.589 44.1012C143.019 44.0913 143.421 43.9191 143.832 43.8134C144.52 43.5908 145.236 43.4445 145.903 43.1616C145.563 42.8237 145.373 42.3668 145.376 41.8913C144.42 42.1975 143.454 42.4656 142.487 42.7361V42.7373ZM146.807 43.2047C146.615 43.2883 146.331 43.3498 146.349 43.6105C146.216 44.1344 146.757 44.7173 147.304 44.5389C147.889 44.3815 148.453 44.1589 149.034 43.9855C148.986 43.5219 148.909 43.062 148.834 42.6045C148.168 42.837 147.483 43.0042 146.807 43.2047ZM142.986 44.3582C142.737 44.4455 142.328 44.4959 142.35 44.8316C142.275 45.2264 142.558 45.5941 142.902 45.7638C143.199 45.8056 143.481 45.6765 143.761 45.5978C144.65 45.3125 145.561 45.1059 146.446 44.8046C146.244 44.667 146.079 44.4832 145.966 44.2689C145.852 44.0547 145.793 43.8165 145.794 43.5748C144.844 43.7839 143.934 44.138 142.986 44.3619V44.3582ZM146.872 44.9767C146.134 45.2129 146.648 46.4316 147.342 46.2987C147.924 46.1696 148.466 45.9126 149.046 45.7576C149.063 45.2805 149.066 44.8046 149.056 44.3274C148.327 44.5377 147.588 44.7234 146.872 44.9767ZM143.907 45.8671C143.432 46.0024 142.939 46.0909 142.508 46.3406C142.542 46.6271 142.468 46.9665 142.689 47.2014C142.873 47.3822 143.133 47.5593 143.404 47.4572C144.504 47.1473 145.601 46.8263 146.697 46.5029C146.515 46.3799 146.305 46.2803 146.166 46.1069C146.03 45.8609 146.02 45.572 145.96 45.3051C145.263 45.4502 144.586 45.6888 143.907 45.8708V45.8671ZM146.914 46.7316C146.337 46.9776 146.665 47.8101 147.144 47.9835C147.549 48.0807 147.944 47.8876 148.318 47.7646C148.482 47.6933 148.707 47.6416 148.743 47.4338C148.828 46.979 148.942 46.5298 149.083 46.0885C148.373 46.3442 147.616 46.4574 146.914 46.7316ZM142.948 47.8937C142.275 48.1655 142.73 49.201 143.352 49.1973C143.576 49.176 143.796 49.1259 144.007 49.0485C144.906 48.7534 145.844 48.575 146.722 48.2147C146.276 47.9688 146.098 47.5113 146.071 47.0317C145.02 47.2776 143.994 47.6281 142.949 47.8925L142.948 47.8937ZM157.397 25.7026C158.466 25.0078 159.797 24.832 161.049 24.9722C161.514 25.032 161.957 25.2007 162.342 25.4641C161.975 25.6657 161.732 25.999 161.507 26.3384C161.036 26.4257 160.977 25.7334 160.554 25.651C159.994 25.56 159.43 25.7531 158.93 25.983C158.556 26.1687 158.165 26.5094 158.231 26.9607C158.281 27.2638 158.401 27.5516 158.582 27.8021C158.762 28.0525 158.999 28.259 159.273 28.4057C159.424 28.4745 159.661 28.6639 159.434 28.8016C158.829 29.3514 158.268 30.1236 158.517 30.9783C158.624 31.3731 159.109 31.3067 159.429 31.3792C159.414 31.4788 159.4 31.5785 159.386 31.6793C159.116 31.8168 158.853 31.9687 158.599 32.1343C158.724 32.6447 159.164 32.9386 159.59 33.1968C159.31 33.2251 159.03 33.2485 158.752 33.2731C158.784 33.5498 158.778 33.8658 159.002 34.0773C159.251 34.4069 159.686 34.4819 160.074 34.5422C159.872 34.6984 159.527 34.7881 159.536 35.0931C159.795 35.676 160.545 35.4965 161.062 35.5457C160.937 35.7351 160.813 35.9257 160.688 36.12C161.16 36.254 161.652 36.2786 162.136 36.3463C162.475 39.0837 162.648 41.8372 162.971 44.5758C163.032 45.3936 163.069 46.2188 163.253 47.0231C162.493 46.7294 161.694 46.5467 160.88 46.4808C160.042 46.2951 159.184 46.284 158.33 46.2532C158.601 45.3776 158.767 44.4307 158.486 43.5342C158.194 42.6139 157.564 41.8336 156.72 41.3452C155.322 40.4844 153.544 40.2126 152.398 38.9681C151.639 38.2118 151.412 37.1136 151.399 36.0868C151.466 33.7084 152.371 31.4137 153.701 29.446C154.7 27.9998 155.898 26.6545 157.394 25.6965L157.397 25.7026ZM162.606 25.8969C162.934 25.7112 163.355 25.8342 163.605 26.09C164.261 26.7049 165.256 27.0099 165.603 27.9015C165.056 27.5325 164.503 27.187 163.935 26.8598C163.73 26.7066 163.489 26.6062 163.234 26.568C162.979 26.5298 162.719 26.5548 162.476 26.641C161.823 27.0197 161.532 27.7625 160.97 28.2396C160.606 28.4364 160.133 28.4081 159.75 28.2753C159.471 28.1232 159.233 27.9085 159.055 27.6487C158.876 27.3888 158.763 27.0912 158.723 26.7799C159.034 26.3741 159.527 26.0421 160.067 26.1146C160.604 26.1023 160.914 26.6065 161.225 26.9533C161.764 26.7074 162.114 26.2155 162.599 25.8994L162.606 25.8969ZM161.596 28.8361C161.611 28.0084 162.243 26.9804 163.194 27.0861C163.492 27.0628 163.629 27.353 163.789 27.5436C164.386 27.5584 165.038 27.6936 165.352 28.2544C164.853 28.3097 164.302 28.3306 163.881 28.6467C163.424 28.9332 163.177 29.4448 162.725 29.7338C162.17 29.9318 161.501 29.4227 161.601 28.8361H161.596ZM162.154 29.2653C162.529 29.5112 162.882 29.1853 163.142 28.9394C162.921 28.8484 162.666 28.8066 162.489 28.6406C162.344 28.4241 162.301 28.0933 162.477 27.8818C162.7 27.61 163.177 27.7194 163.352 27.3899C162.376 27.2128 161.628 28.5065 162.16 29.2628L162.154 29.2653ZM162.793 28.0539C162.643 28.3725 163.043 28.6381 163.323 28.659C163.809 28.4733 164.255 28.1991 164.718 27.9666C164.382 27.8926 164.035 27.8735 163.693 27.9101C163.578 28.156 163.467 28.4585 163.139 28.4622C163.131 28.2446 163.129 28.0257 163.126 27.808C163.017 27.8892 162.847 27.9174 162.793 28.0539ZM159.223 29.6994C159.645 29.0956 160.347 28.7451 161.047 28.5582C160.708 30.2798 160.986 32.1503 161.97 33.6285C162.345 34.2065 162.897 34.632 163.385 35.1042C163.218 35.3322 163.003 35.5219 162.754 35.6601C162.505 35.7983 162.229 35.8818 161.944 35.9048L161.75 35.7547C161.845 35.4645 161.975 35.1878 162.089 34.905C161.546 34.9923 161.009 35.1288 160.457 35.1509C160.73 34.7267 161.154 34.343 161.117 33.7982C160.646 33.9777 160.129 34.0724 159.634 33.9212C160.008 33.5522 160.552 33.2682 160.611 32.7037C160.172 32.657 159.737 32.5979 159.303 32.5094C159.684 32.0175 160.206 31.544 160.177 30.8701C159.778 30.9016 159.377 30.8755 158.985 30.7926C159.007 30.4237 158.985 30.0117 159.219 29.6945L159.223 29.6994ZM164.37 28.7623C164.79 28.552 165.279 28.6147 165.733 28.6393C165.234 28.793 164.637 28.718 164.226 29.0931C163.64 29.585 163.851 30.4913 163.313 31.0263C163.018 31.3866 162.512 31.3571 162.096 31.287C162.113 31.0091 162.01 30.6721 162.231 30.4495C162.55 30.1027 162.981 29.8765 163.332 29.5703C163.675 29.2997 163.969 28.9554 164.37 28.7611V28.7623ZM165.143 28.9923C166.011 28.6516 166.837 29.2702 167.697 29.3427C167.665 29.7315 167.578 30.114 167.438 30.479C167.022 30.2073 166.865 29.7043 166.476 29.4067C166.088 29.1091 165.593 29.098 165.143 28.9923ZM164.824 29.8162C165.26 29.4706 165.999 29.4251 166.382 29.874C166.685 30.1913 166.795 30.6266 166.881 31.0423C166.333 31.1653 165.791 31.3091 165.258 31.4739C164.641 31.6584 163.989 31.6067 163.354 31.6461C163.925 31.0989 164.176 30.2934 164.822 29.8162H164.824ZM165.396 31.8687C165.993 31.7924 166.506 31.4665 167.072 31.287C166.869 31.8659 166.541 32.3949 166.111 32.8377C165.888 32.6115 165.705 32.2548 165.332 32.293C164.583 32.2634 163.734 32.2069 163.084 32.6459C162.592 33.037 162.848 33.8535 163.43 33.9986C163.89 34.0964 164.366 34.0939 164.825 33.9913C165.233 33.7453 165.505 33.3235 165.932 33.0948C165.707 33.5768 165.307 33.9753 165.195 34.5065C165.106 34.7685 165.101 35.0796 164.895 35.2887C164.624 35.617 164.121 35.5617 163.761 35.4289C163.585 35.1829 163.568 34.8742 163.438 34.6111C163.106 34.3282 162.681 34.1191 162.475 33.7232C162.205 33.2817 162.274 32.6065 162.765 32.3434C163.566 31.8871 164.527 32.0667 165.397 31.8699L165.396 31.8687ZM163.399 32.8832C163.944 32.5746 164.612 32.6188 165.199 32.7713C165.449 32.8058 165.296 33.1194 165.315 33.2755C164.714 32.9841 164.059 32.9152 163.399 32.8832ZM151.604 46.3086C152.703 45.7441 154.001 46.0356 155.124 46.3774C155.786 46.6234 156.504 46.5299 157.191 46.6345C158.19 46.83 159.216 46.7722 160.214 46.9751C161.198 47.0017 162.172 47.1674 163.108 47.467C163.819 47.7302 164.582 47.7659 165.334 47.7413C165.927 47.7609 166.362 47.2493 166.947 47.2198C167.322 47.1645 167.639 47.4793 168.016 47.4449C168.266 47.4523 168.557 47.3809 168.748 47.5814C168.952 47.8507 169.059 48.1778 169.258 48.4508C169.595 48.6968 170.085 48.7435 170.328 49.1137C170.613 49.5291 170.841 49.9798 171.006 50.4541L170.573 50.4775C169.986 49.8232 169.384 49.1825 168.833 48.4976C168.679 48.3099 168.505 48.1392 168.314 47.9884C168.356 48.2918 168.44 48.5881 168.563 48.8689C168.22 48.5566 167.91 48.2123 167.564 47.8974C167.398 47.7019 167.117 47.7745 166.892 47.7462C166.82 48.3611 167.517 48.6697 167.494 49.2612C166.881 49.2305 166.414 48.7989 165.852 48.6119C165.154 48.3982 164.426 48.2989 163.695 48.318C163.168 48.3352 162.72 48.0241 162.228 47.8925C161.179 47.6298 160.104 47.4797 159.023 47.4449C157.84 47.2604 156.64 47.3637 155.448 47.3022C154.6 47.2801 153.815 46.8792 152.968 46.8607C152.508 46.9272 152.005 47.0218 151.66 47.3526C151.188 47.8691 151.311 48.6992 151.75 49.1973C152.159 49.6523 152.786 49.8257 153.374 49.9278C154.565 50.0385 155.761 49.9278 156.953 49.9487C158.146 49.9696 159.361 49.7581 160.575 49.7839C161.433 49.7409 162.291 49.7839 163.149 49.8159L163.011 49.5539C162.364 49.2735 161.644 49.2391 160.949 49.2182C158.995 49.1805 157.042 49.1739 155.087 49.1985C154.425 49.2059 153.624 49.3768 153.114 48.8444C152.822 48.6082 152.739 48.1065 153.038 47.8421C153.851 47.5765 154.721 47.7868 155.55 47.8679C156.798 48.1213 158.099 47.9552 159.354 48.1975C160.445 48.3094 161.527 48.4926 162.594 48.746C163.994 49.0436 165.591 48.8333 166.776 49.7777C166.939 49.9359 167.136 50.0572 167.351 50.133C167.567 50.2088 167.797 50.2374 168.025 50.2168C168.036 49.8884 168.06 49.5625 168.098 49.233C168.502 49.3393 168.901 49.4674 169.292 49.6166C169.772 49.7827 170.041 50.2524 170.235 50.689C164.683 50.764 159.128 50.689 153.576 50.6792C152.673 50.5869 151.703 50.4332 150.998 49.8183C150.346 49.2723 150.113 48.3291 150.35 47.5334C150.531 46.9468 151.058 46.5496 151.599 46.3037L151.604 46.3086ZM126.157 52.8128C126.216 52.4869 126.605 52.5669 126.853 52.5336C141.007 52.5336 155.162 52.5336 169.317 52.5336C170.424 52.5619 171.537 52.4648 172.639 52.6037C172.639 52.6775 172.649 52.8251 172.652 52.8989C157.343 52.921 142.034 52.8989 126.725 52.9124C126.537 52.8866 126.302 52.9555 126.153 52.8116L126.157 52.8128ZM166.314 53.9085L166.806 53.9516C166.89 54.1851 166.904 54.4375 166.845 54.6784C166.618 54.6698 166.39 54.6624 166.165 54.6525C166.128 54.5269 166.122 54.3941 166.148 54.2657C166.174 54.1372 166.231 54.0168 166.314 53.9147V53.9085ZM130.041 54.2332C130.463 54.2233 130.886 54.2221 131.309 54.2197C131.353 55.2108 131.24 56.2106 131.385 57.1969C132.078 57.2946 132.78 57.3107 133.477 57.2449C135.092 57.2769 136.714 57.3346 138.327 57.2289C138.327 57.1465 138.309 56.9829 138.303 56.9005C138.083 56.7874 137.861 56.6472 137.602 56.662C136.228 56.6521 134.855 56.6706 133.471 56.662C133.102 56.6325 132.639 56.6706 132.404 56.3238C132.107 55.8897 132.291 55.34 132.308 54.8616C132.258 54.8973 132.217 54.9438 132.189 54.9976C132.16 55.0513 132.145 55.1108 132.143 55.1715C132.133 55.6145 132.172 56.0573 132.258 56.4923C131.289 56.2205 131.454 54.8259 132.194 54.3857C132.614 54.029 133.181 54.2836 133.664 54.3217C133.548 54.5424 133.466 54.7791 133.422 55.0239C133.53 55.2342 133.718 55.4162 133.975 55.3929C135.394 55.431 136.815 55.367 138.236 55.415C138.501 55.428 138.759 55.5068 138.986 55.6442C139.213 55.7815 139.4 55.973 139.532 56.2008C139.759 56.8354 139.646 57.5265 139.669 58.1869C139.314 58.2352 138.955 58.2615 138.596 58.2656C136.598 58.2582 134.6 58.2656 132.602 58.2656C131.852 58.2656 131.09 58.3172 130.371 58.0885C130.08 57.979 130.014 57.6446 130.029 57.3728C130.029 56.3262 130.02 55.2822 130.041 54.2344V54.2332ZM168.491 54.2246C168.919 54.2246 169.348 54.2246 169.777 54.2246C169.796 55.1973 169.767 56.1701 169.795 57.144C170.419 57.3334 171.074 57.3076 171.711 57.2129C171.753 56.6154 171.762 56.0159 171.736 55.4174C172.15 55.4015 172.568 55.4002 172.985 55.4076C172.993 56.3398 173.031 57.2744 172.961 58.2066C172.168 58.3062 171.367 58.257 170.57 58.2693C170.018 58.2878 169.466 58.2386 168.926 58.1229C168.511 58.0664 168.5 57.5732 168.445 57.2559C168.386 56.2461 168.402 55.2334 168.492 54.2258L168.491 54.2246ZM142.187 54.2541C142.624 54.227 143.063 54.227 143.5 54.2541C143.555 55.2379 143.489 56.2131 143.542 57.192C143.807 57.2232 144.073 57.251 144.34 57.2756C144.404 56.6526 144.398 56.0246 144.324 55.4027C144.74 55.4027 145.156 55.4027 145.573 55.4273C145.77 56.0077 145.753 56.6238 145.752 57.2277C145.948 57.2338 146.144 57.2449 146.34 57.2584C146.421 56.6392 146.399 56.0111 146.274 55.399C146.707 55.399 147.148 55.399 147.576 55.431C147.701 56.009 147.659 56.6042 147.672 57.192H148.342C148.364 56.5939 148.341 55.9951 148.274 55.4002C148.689 55.4088 149.118 55.351 149.523 55.4703C149.693 55.6966 149.66 55.9905 149.67 56.2561C149.67 56.9005 149.662 57.5462 149.67 58.1918C148.9 58.3049 148.121 58.2594 147.347 58.2644C146.054 58.2521 144.76 58.2902 143.469 58.2496C143.004 58.1856 142.29 58.2164 142.22 57.6077C142.12 56.5009 142.18 55.3695 142.195 54.2529L142.187 54.2541ZM150.107 54.2529C150.535 54.2332 150.963 54.2332 151.392 54.2529C151.433 55.2145 151.407 56.1762 151.407 57.1379C152.229 57.283 153.068 57.2018 153.898 57.1981C153.912 56.6091 153.916 56.02 153.898 55.4322C154.325 55.4101 154.751 55.4076 155.176 55.4248C155.162 56.3508 155.169 57.2781 155.176 58.2041C154.366 58.3271 153.545 58.2644 152.728 58.2766C151.979 58.2766 151.216 58.3234 150.493 58.1032C150.168 57.9692 150.105 57.5757 150.105 57.2682C150.098 56.2648 150.097 55.26 150.117 54.2565L150.107 54.2529ZM158.323 54.6575C158.593 54.3426 159.049 54.3697 159.422 54.2824C159.219 54.6341 159.055 55.0448 159.37 55.3892C160.869 55.447 162.36 55.3892 163.855 55.4174C164.141 55.4167 164.423 55.4906 164.671 55.6316C164.919 55.7727 165.125 55.9758 165.268 56.2205C165.401 56.5279 165.382 56.8698 165.42 57.1957C165.866 57.2191 166.314 57.2191 166.76 57.1957C166.772 56.6054 166.775 56.0163 166.76 55.4261C167.192 55.4076 167.624 55.4076 168.058 55.4261C168.05 56.3521 168.058 57.2793 168.05 58.2066C167.401 58.2991 166.742 58.3119 166.089 58.2447C165.846 58.2176 165.662 58.0479 165.477 57.9077C165.327 58.1106 165.129 58.3074 164.853 58.2766C162.895 58.2877 160.936 58.2693 158.977 58.2766C158.565 58.2804 158.154 58.257 157.745 58.2066C157.745 57.8991 157.745 57.5917 157.745 57.2867C159.03 57.2941 160.315 57.2621 161.601 57.2867C162.424 57.2314 163.25 57.315 164.07 57.2055C164.07 57.1317 164.06 56.9829 164.056 56.9079C163.836 56.7923 163.614 56.6497 163.354 56.662C161.98 56.6534 160.6 56.662 159.224 56.662C158.849 56.662 158.425 56.6349 158.184 56.3127C157.714 55.8479 157.926 55.0829 158.328 54.6452L158.323 54.6575ZM126.677 55.4236C127.366 55.3494 128.061 55.3428 128.751 55.4039C129.207 55.4261 129.54 55.8602 129.574 56.2857C129.622 56.9202 129.582 57.5585 129.587 58.1955C128.77 58.3012 127.944 58.2656 127.124 58.2594C126.814 58.225 126.462 58.2238 126.207 58.0282C126.02 57.7392 126.066 57.3789 126.025 57.0543C126.804 57.2769 127.627 57.2129 128.426 57.1686C128.38 56.9842 128.31 56.7825 128.103 56.7284C127.627 56.6238 127.134 56.7026 126.668 56.8169C126.668 56.3521 126.668 55.8884 126.677 55.4236ZM140.54 55.3953C140.952 55.3695 141.367 55.3683 141.78 55.3806C141.801 56.2906 141.802 57.2006 141.792 58.1119C141.817 58.6161 141.398 58.9899 140.973 59.1904C140.547 59.4289 140.039 59.349 139.587 59.2445C139.837 59.0526 140.103 58.8866 140.306 58.6505C140.537 58.3578 140.556 57.9717 140.556 57.6187C140.556 56.8809 140.55 56.143 140.545 55.3953H140.54ZM152.104 58.5964C152.251 58.5665 152.402 58.5691 152.548 58.604C152.694 58.6389 152.83 58.7051 152.947 58.7981C153.155 58.6234 153.529 58.4291 153.726 58.7095C153.907 58.9272 153.71 59.151 153.557 59.317C153.328 59.3711 153.133 59.2187 152.942 59.1215C152.699 59.2655 152.418 59.3329 152.135 59.3146C152.119 59.0686 152.107 58.835 152.104 58.5964ZM154.063 58.5681H154.619C154.69 58.8113 154.677 59.0706 154.583 59.306C154.417 59.3121 154.251 59.322 154.083 59.3318C153.996 59.2227 153.947 59.0891 153.943 58.9505C153.939 58.812 153.98 58.6758 154.061 58.562L154.063 58.5681ZM171.079 58.5989C171.319 58.5915 171.56 58.589 171.801 58.5989C171.801 58.8325 171.788 59.0686 171.776 59.3035C171.552 59.2789 171.214 59.4265 171.113 59.151C171.013 58.985 171.091 58.7821 171.079 58.6038V58.5989ZM126.163 60.628C141.657 60.6189 157.15 60.6189 172.642 60.628C172.642 60.7509 172.642 60.8739 172.642 61.0055C157.148 61.0055 141.655 61.0055 126.162 61.0055V60.6366L126.163 60.628Z" fill="#F0C239"/>
    </g>
    <g clip-path="url(#clip1_4033_7416)">
        <path d="M57.4937 29.0645C57.4937 31.5037 57.5795 33.9429 57.4636 36.3779C57.3735 38.2676 56.2318 39.3879 54.266 39.3372C52.8538 39.316 51.24 39.9078 49.8021 38.5804C47.1281 39.8487 44.0721 39.8191 43.5013 38.9229L33.0498 39.5908C33.0498 35.2703 32.8523 31.2712 33.1871 27.3312C33.273 26.3166 35.0456 25.4416 36.5478 24.0254V34.9448H40.0245C40.0245 32.4084 40.1104 29.8423 43.5398 28.9799V34.7462C47.0165 35.431 46.8147 35.3718 47.2826 32.3281C47.4886 31.0049 48.8836 29.8593 49.7377 28.6291L50.4931 28.9461V34.632C53.7123 35.5325 54.2274 35.2957 54.09 32.569C53.9699 30.2608 55.9957 30.0537 57.4937 29.0645Z" fill="#344456"/>
        <path d="M90.6205 39.3538C90.5003 38.6943 90.393 38.0855 90.217 37.1639C88.5517 39.3411 86.3842 39.4679 84.1265 39.4256C81.1219 39.3749 78.1174 39.4256 75.1129 39.4003C72.3616 39.3622 71.2499 38.28 71.0095 35.5956C70.6533 31.2794 71.104 30.4042 74.6579 28.8993C74.6579 30.5142 74.5892 32.0403 74.6966 33.5495C74.7352 34.0525 75.2202 34.9318 75.5206 34.9403C79.1132 35.0375 82.7058 35.0037 86.2983 35.0037L86.5043 34.3949L81.9031 30.5903C85.0321 28.671 87.2082 25.2045 91.9554 26.5235L86.8563 30.455C88.2127 31.96 89.3886 33.5283 90.8523 34.7712C91.3974 35.2362 92.6336 35.1052 93.492 34.9361C93.8268 34.8727 94.2775 33.9173 94.1916 33.4522C93.7409 30.9158 95.4535 29.9858 97.4365 28.8824C97.4365 31.7867 97.6297 34.5598 97.312 37.2696C97.2219 38.0559 95.7497 39.0029 94.7367 39.2861C93.5049 39.6201 92.0798 39.3538 90.6205 39.3538Z" fill="#344456"/>
        <path d="M62.4039 34.7931C66.0522 35.3807 65.8377 35.3426 66.4386 32.1298C66.6704 30.8869 68.1211 29.8681 69.0139 28.7478L69.6019 29.0903C69.6019 31.7155 69.8208 34.3619 69.5375 36.9575C69.2542 39.5532 67.0008 39.401 65.0264 39.4517C66.3141 41.5655 66.3442 41.5654 69.8766 39.5447L72.6708 41.7388L69.6362 44.0047C67.9194 41.8106 66.0695 41.8022 64.3011 44.0047C63.5972 43.472 63.0864 42.9436 62.4597 42.6561C61.979 42.4363 61.0733 42.2672 60.8373 42.5166C58.6912 44.7403 57.4035 43.1042 55.854 41.4851C59.0817 40.386 59.0388 37.8876 58.8585 35.2623C58.7426 33.4403 59.0603 31.5718 58.7856 29.7667C58.3564 26.9808 59.9102 25.7041 62.3911 24.4443L62.4039 34.7931ZM61.4725 41.4978L64.1037 39.5278H59.1419L61.4725 41.4978Z" fill="#344456"/>
        <path d="M10.0695 39.316C10.0695 35.2619 9.85061 31.3219 10.2111 27.4327C10.3099 26.3589 12.134 25.4416 13.6449 24V34.8434H18.9757L19.2161 34.3826L14.5677 30.5779C17.7181 28.7136 19.8729 25.1203 24.7058 26.5534L19.2719 30.5737C20.0531 31.2163 20.7055 31.8081 21.418 32.3196C22.7743 33.3004 23.8001 34.4333 23.2293 36.2215C22.6584 38.0097 21.3193 39.1807 19.4908 39.2653C16.4348 39.4428 13.3702 39.316 10.0695 39.316Z" fill="#344456"/>
        <path d="M102.583 24.7522V35.0545C103.561 35.0545 104.385 35.2363 105.064 34.9995C105.617 34.8051 106.437 34.0483 106.377 33.6594C105.948 31.1229 107.519 29.9604 110 28.7852C109.836 31.8417 109.957 34.7036 109.459 37.4557C109.03 39.6962 106.768 39.3284 104.634 39.4848C105.514 40.2754 106.192 40.8926 107.098 41.7127L104.119 43.9109L101.153 41.6577L103.729 39.4848H98.9386C98.9386 35.3124 98.7197 31.3724 99.076 27.4789C99.1747 26.3798 100.943 25.4244 101.943 24.4014L102.583 24.7522Z" fill="#344456"/>
        <path d="M0.197354 39.2863V35.2068L4.88868 34.839C2.98295 32.2433 -1.35212 31.5078 0.411963 27.0225C3.08599 29.2672 5.88023 31.3006 8.27097 33.7187C10.0393 35.5154 8.19367 38.7917 5.21918 39.244C3.63537 39.4934 1.98719 39.2863 0.197354 39.2863Z" fill="#344456"/>
        <path d="M24.5771 39.3289V35.372C24.8261 35.2621 25.0063 35.0888 25.1952 35.1099C27.543 35.3932 28.5817 34.7125 28.513 32.0704C28.4873 30.9459 30.1398 29.7833 31.0283 28.6377L31.4876 28.9294C31.4876 31.7238 31.6593 34.5392 31.376 37.3039C31.2987 38.0522 29.9338 38.995 28.9981 39.2444C27.6761 39.5783 26.2039 39.3289 24.5771 39.3289Z" fill="#344456"/>
        <path d="M21.4995 24.3631C21.4652 24.4942 21.4695 24.6802 21.3836 24.7436C19.2375 26.3331 17.0613 27.91 14.8766 29.5037C14.0869 27.0603 18.3448 23.8093 21.4995 24.3631Z" fill="#344456"/>
        <path d="M92.5566 26.1642L95.3723 24.0928L98.0464 26.1474C95.72 29.0009 95.2435 29.0051 92.5566 26.1642Z" fill="#344456"/>
    </g>
    <defs>
        <clipPath id="clip0_4033_7416">
            <rect width="47" height="61" fill="white" transform="translate(126)"/>
        </clipPath>
        <clipPath id="clip1_4033_7416">
            <rect width="110" height="20" fill="white" transform="translate(0 24)"/>
        </clipPath>
    </defs>
</svg>
