<svg width="183" height="40" viewBox="0 0 183 40" fill="none" xmlns="http://www.w3.org/2000/svg">
    <path d="M151.357 40.0004C151.139 39.881 150.902 39.8018 150.656 39.7666C149.862 39.4942 149.15 39.0262 148.585 38.4059C148.02 37.7855 147.621 37.0328 147.424 36.2172C147.227 35.4017 147.239 34.5497 147.459 33.74C147.678 32.9303 148.098 32.1889 148.68 31.5845C157.049 23.192 165.43 14.8112 173.823 6.44213C174.434 5.82849 175.194 5.38439 176.028 5.15344C176.863 4.92249 177.743 4.91265 178.583 5.12489C179.422 5.33713 180.192 5.76414 180.817 6.36398C181.441 6.96381 181.899 7.71582 182.145 8.5461C182.203 8.72143 182.145 8.94352 182.332 9.08379V10.8371C181.903 12.2524 181.07 13.5117 179.936 14.4606C172.19 22.1751 164.46 29.9053 156.745 37.651C155.78 38.7592 154.519 39.57 153.11 39.9887L151.357 40.0004Z" fill="#FED13F"/>
    <path d="M0 19.6732C0.198708 19.5797 0.187014 19.3576 0.268835 19.1823C0.564036 18.5858 1.04153 18.0988 1.63209 17.792C2.22266 17.4852 2.8956 17.3744 3.55336 17.4757C4.21724 17.5649 4.83033 17.8795 5.28995 18.3668C5.74957 18.8541 6.02782 19.4845 6.07812 20.1524C6.17163 22.233 6.07812 24.3136 6.07812 26.3942C6.04115 28.183 6.68929 29.9184 7.88987 31.245C8.75325 32.2906 9.9166 33.0463 11.223 33.41C12.5293 33.7737 13.9158 33.7279 15.1953 33.2788C16.4811 32.9181 17.6342 32.1912 18.5141 31.1867C19.3941 30.1823 19.9629 28.9435 20.1513 27.6215C20.2429 27.085 20.2821 26.5409 20.2682 25.9968L20.1279 8.07799C20.1279 6.4182 20.0695 4.77008 20.0578 3.12198C20.0578 2.30667 20.3817 1.52475 20.9582 0.948243C21.5347 0.371732 22.3166 0.0478516 23.1319 0.0478516C23.9472 0.0478516 24.7292 0.371732 25.3057 0.948243C25.8822 1.52475 26.2061 2.30667 26.2061 3.12198C26.2061 5.37789 26.2645 7.63382 26.2879 9.88974C26.2879 15.4185 26.3931 20.9472 26.3931 26.4643C26.4316 28.2521 26.0923 30.0278 25.3974 31.6754C24.7025 33.3231 23.6676 34.8055 22.3605 36.0257C20.7021 37.7347 18.5899 38.9342 16.2726 39.483C13.9554 40.0317 11.5295 39.9069 9.28083 39.1232C6.96706 38.4446 4.89075 37.129 3.28894 35.3267C1.68714 33.5244 0.624408 31.3081 0.222088 28.9306C0.222088 28.6852 0.222079 28.3929 0.0116823 28.1825L0 19.6732Z" fill="#313131"/>
    <path d="M171.228 39.9988C170.456 39.391 170.41 38.8884 171.123 38.1754L180.474 28.7543C181.163 28.0647 181.794 28.1582 182.285 29.0232C182.285 32.5298 182.285 36.0364 182.285 39.543C182.285 39.8936 182.215 39.9638 181.865 39.9638L171.228 39.9988Z" fill="#FED13F"/>
    <path d="M94.9356 23.3557C92.855 23.3557 90.7744 23.3557 88.6939 23.3557C88.2146 23.3557 88.1211 23.496 88.1211 23.9402C88.2229 25.7863 88.0774 27.6379 87.6886 29.4455C86.8804 32.5403 85.0251 35.2596 82.4383 37.141C79.8515 39.0223 76.6929 39.9495 73.4996 39.7649C70.3064 39.5803 67.2756 38.2953 64.9228 36.1284C62.57 33.9615 61.0404 31.0466 60.5942 27.8793C60.4304 26.174 60.3835 24.4596 60.454 22.7479C60.454 22.0154 60.454 21.279 60.454 20.5388C60.428 20.1183 60.4885 19.697 60.6315 19.3009C60.7746 18.9047 60.9973 18.542 61.2858 18.2351C61.5743 17.9282 61.9227 17.6837 62.3093 17.5165C62.6959 17.3493 63.1127 17.2631 63.5339 17.2631C63.9552 17.2631 64.3719 17.3493 64.7586 17.5165C65.1452 17.6837 65.4935 17.9282 65.782 18.2351C66.0706 18.542 66.2932 18.9047 66.4363 19.3009C66.5794 19.697 66.6398 20.1183 66.6139 20.5388C66.6139 22.3388 66.6139 24.1272 66.6139 25.9155C66.557 27.8352 67.2214 29.7066 68.4762 31.1606C69.731 32.6145 71.485 33.5455 73.3924 33.77C75.2998 33.9945 77.222 33.4962 78.7801 32.3733C80.3381 31.2503 81.4189 29.5844 81.8092 27.7039C81.945 27.1572 82.0117 26.5957 82.0079 26.0324C82.0079 22.6778 82.0079 19.3348 82.0079 15.9801C81.9856 15.1866 82.27 14.4149 82.802 13.8256C83.334 13.2363 84.0726 12.8748 84.8643 12.8161C85.6561 12.7574 86.4399 13.0061 87.053 13.5104C87.6661 14.0148 88.0612 14.7361 88.1562 15.5243C88.1681 15.6604 88.1681 15.7973 88.1562 15.9334C88.1562 17.1724 88.1562 17.1724 89.4419 17.1724H101.072C101.756 17.1084 102.442 17.2734 103.021 17.6416C103.601 18.0098 104.042 18.5602 104.275 19.2062C104.448 19.6793 104.503 20.1879 104.432 20.6868C104.362 21.1858 104.17 21.6598 103.873 22.0668C103.576 22.4737 103.183 22.8011 102.729 23.0198C102.275 23.2385 101.774 23.3419 101.271 23.3207C99.1436 23.3791 97.0162 23.3557 94.9356 23.3557Z" fill="#313131"/>
    <path d="M31.6998 11.6663C31.6998 8.88443 31.6998 6.10252 31.6998 3.3323C31.6662 2.91355 31.7186 2.49237 31.8535 2.09454C31.9885 1.69671 32.2032 1.33063 32.4846 1.01872C32.766 0.70681 33.1081 0.455646 33.49 0.280613C33.8719 0.105579 34.2855 0.0103629 34.7055 0.000799693C35.1255 -0.00876347 35.543 0.0675316 35.9325 0.225001C36.3219 0.382471 36.6751 0.617798 36.9705 0.916574C37.2658 1.21535 37.497 1.57128 37.6499 1.96255C37.8028 2.35382 37.8742 2.7722 37.8598 3.19204C37.8598 4.74664 37.8598 6.30123 37.8598 7.86751C37.8598 10.8248 37.9416 13.782 37.9533 16.7392C37.9533 17.1834 38.1286 17.2185 38.4909 17.2185H48.777C49.5747 17.1593 50.3641 17.4135 50.9775 17.927C51.5909 18.4404 51.9799 19.1728 52.0621 19.9685C52.1443 20.7642 51.913 21.5606 51.4175 22.1885C50.922 22.8165 50.2012 23.2266 49.4082 23.3317C49.1627 23.3317 48.9056 23.3317 48.6484 23.3317H35.3701C34.8951 23.3928 34.4123 23.3441 33.9591 23.1895C33.5058 23.0349 33.094 22.7784 32.7553 22.4398C32.4167 22.1011 32.1602 21.6893 32.0056 21.236C31.851 20.7828 31.8024 20.3001 31.8635 19.8251V11.643L31.6998 11.6663Z" fill="#313131"/>
    <path d="M119.225 28.5341C119.225 31.2225 119.225 33.8992 119.225 36.5876C119.25 37.3601 118.984 38.1139 118.479 38.6988C117.973 39.2837 117.266 39.6569 116.498 39.7438C115.73 39.8308 114.958 39.6253 114.334 39.1681C113.711 38.711 113.283 38.0359 113.135 37.2772C113.098 37.0099 113.079 36.7405 113.076 36.4707C113.076 31.1563 113.076 25.8418 113.076 20.5273C113.019 19.7981 113.223 19.0723 113.651 18.4793C114.079 17.8863 114.704 17.4646 115.414 17.2896C115.846 17.1821 116.296 17.1714 116.732 17.2583C117.169 17.3453 117.58 17.5277 117.938 17.7925C118.295 18.0572 118.59 18.3978 118.8 18.7898C119.011 19.1818 119.132 19.6155 119.155 20.0598C119.155 22.8885 119.155 25.7054 119.155 28.5341H119.225Z" fill="#313131"/>
    <path d="M126.635 28.486V20.4208C126.635 19.6055 126.959 18.8236 127.536 18.2471C128.112 17.6706 128.894 17.3467 129.71 17.3467C130.525 17.3467 131.307 17.6706 131.883 18.2471C132.46 18.8236 132.784 19.6055 132.784 20.4208C132.784 25.8132 132.784 31.2017 132.784 36.5863C132.81 37.0051 132.749 37.4249 132.607 37.8196C132.464 38.2143 132.243 38.5757 131.955 38.8814C131.668 39.1872 131.321 39.4309 130.935 39.5974C130.55 39.764 130.135 39.8499 129.715 39.8499C129.296 39.8499 128.88 39.764 128.495 39.5974C128.11 39.4309 127.763 39.1872 127.476 38.8814C127.188 38.5757 126.966 38.2143 126.824 37.8196C126.681 37.4249 126.621 37.0051 126.647 36.5863L126.635 28.486Z" fill="#313131"/>
    <path d="M147.278 10.7545V6.07899C147.278 5.26078 147.593 4.91012 148.446 4.91012H157.797C158.01 4.87686 158.227 4.91508 158.415 5.01874C158.604 5.1224 158.752 5.28566 158.838 5.48287C158.912 5.68745 158.921 5.91029 158.862 6.11999C158.804 6.3297 158.68 6.51568 158.51 6.65174L148.984 16.1897C148.849 16.3607 148.662 16.4836 148.452 16.5404C148.241 16.5972 148.018 16.5849 147.815 16.5053C147.612 16.4271 147.442 16.2804 147.336 16.0905C147.229 15.9006 147.192 15.6793 147.231 15.465V10.6843L147.278 10.7545Z" fill="#FED13F"/>
    <path d="M98.4188 28.3807H102.381C102.706 28.3497 103.034 28.3871 103.344 28.4906C103.654 28.5941 103.939 28.7614 104.18 28.9816C104.421 29.2019 104.613 29.4702 104.744 29.7694C104.876 30.0685 104.943 30.3918 104.941 30.7184C104.945 31.0508 104.88 31.3804 104.752 31.6868C104.623 31.9932 104.433 32.27 104.193 32.5001C103.953 32.7301 103.668 32.9085 103.357 33.0243C103.045 33.14 102.713 33.1907 102.381 33.1731H94.4446C94.1137 33.189 93.783 33.1371 93.4728 33.0206C93.1626 32.9041 92.8795 32.7255 92.6409 32.4956C92.4023 32.2657 92.2131 31.9895 92.0851 31.6839C91.9571 31.3783 91.8929 31.0497 91.8965 30.7184C91.8952 30.3929 91.9619 30.0707 92.0923 29.7724C92.2227 29.4741 92.414 29.2064 92.6538 28.9863C92.8937 28.7663 93.1769 28.5987 93.4853 28.4944C93.7937 28.3901 94.1204 28.3514 94.4446 28.3807H98.4188Z" fill="#313131"/>
    <path d="M42.4065 27.4346H46.3105C46.6416 27.4115 46.9739 27.4568 47.2868 27.5677C47.5996 27.6785 47.8863 27.8526 48.129 28.079C48.3717 28.3053 48.5653 28.5793 48.6976 28.8836C48.8299 29.188 48.8982 29.5164 48.8982 29.8483C48.8982 30.1802 48.8299 30.5085 48.6976 30.8129C48.5653 31.1173 48.3717 31.3912 48.129 31.6176C47.8863 31.844 47.5996 32.018 47.2868 32.1289C46.9739 32.2397 46.6416 32.285 46.3105 32.262H38.3388C38.0077 32.285 37.6755 32.2397 37.3626 32.1289C37.0498 32.018 36.7631 31.844 36.5204 31.6176C36.2777 31.3912 36.0842 31.1173 35.9518 30.8129C35.8195 30.5085 35.7512 30.1802 35.7512 29.8483C35.7512 29.5164 35.8195 29.188 35.9518 28.8836C36.0842 28.5793 36.2777 28.3053 36.5204 28.079C36.7631 27.8526 37.0498 27.6785 37.3626 27.5677C37.6755 27.4568 38.0077 27.4115 38.3388 27.4346H42.4065Z" fill="#313131"/>
    <path d="M132.562 10.6848C132.557 11.2554 132.382 11.8117 132.06 12.2829C131.738 12.754 131.283 13.1187 130.754 13.3306C130.224 13.5424 129.643 13.5917 129.085 13.4724C128.527 13.353 128.017 13.0703 127.62 12.6602C127.223 12.2501 126.957 11.7312 126.856 11.1696C126.755 10.608 126.824 10.029 127.053 9.5063C127.282 8.98364 127.661 8.54098 128.143 8.23463C128.624 7.92828 129.186 7.77211 129.756 7.78601C130.512 7.80137 131.23 8.11467 131.756 8.65765C132.281 9.20063 132.571 9.92926 132.562 10.6848Z" fill="#313131"/>
    <path d="M39.4962 36.5509C39.493 36.1725 39.5657 35.7973 39.7101 35.4475C39.8545 35.0977 40.0677 34.7805 40.3369 34.5146C40.6061 34.2486 40.9259 34.0394 41.2774 33.8993C41.6289 33.7592 42.005 33.691 42.3833 33.6988C43.1158 33.7455 43.8029 34.0694 44.3051 34.6046C44.8073 35.1398 45.0868 35.8462 45.0868 36.5801C45.0868 37.314 44.8073 38.0204 44.3051 38.5556C43.8029 39.0908 43.1158 39.4147 42.3833 39.4614C41.9995 39.4711 41.6178 39.4024 41.2615 39.2593C40.9053 39.1161 40.5821 38.9017 40.3117 38.6292C40.0413 38.3566 39.8295 38.0317 39.6893 37.6743C39.549 37.3169 39.4833 36.9346 39.4962 36.5509Z" fill="#313131"/>
    <path d="M74.305 17.441C74.6802 17.4299 75.0536 17.4949 75.403 17.6319C75.7524 17.769 76.0704 17.9753 76.3379 18.2385C76.6055 18.5017 76.817 18.8162 76.9598 19.1633C77.1026 19.5104 77.1736 19.8827 77.1688 20.258C77.1938 20.6518 77.138 21.0466 77.0045 21.4179C76.8711 21.7893 76.6629 22.1293 76.3929 22.4171C76.1229 22.7049 75.7968 22.9342 75.4346 23.091C75.0725 23.2478 74.6821 23.3287 74.2875 23.3287C73.8929 23.3287 73.5025 23.2478 73.1403 23.091C72.7782 22.9342 72.4521 22.7049 72.1821 22.4171C71.9121 22.1293 71.7039 21.7893 71.5705 21.4179C71.4371 21.0466 71.3811 20.6518 71.4062 20.258C71.4045 19.8806 71.4788 19.5068 71.6249 19.1588C71.771 18.8108 71.9858 18.4959 72.2565 18.2329C72.5271 17.9699 72.848 17.7642 73.2 17.6281C73.552 17.4921 73.9279 17.4284 74.305 17.441Z" fill="#313131"/>
</svg>
